<svg xmlns="http://www.w3.org/2000/svg" xmlns:xlink="http://www.w3.org/1999/xlink" width="553" height="490" viewBox="0 0 553 490">
  <defs>
    <filter id="Rectangle_45" x="0" y="0" width="553" height="490" filterUnits="userSpaceOnUse">
      <feOffset dy="30" input="SourceAlpha"/>
      <feGaussianBlur stdDeviation="40" result="blur"/>
      <feFlood flood-color="#768ea4" flood-opacity="0.102"/>
      <feComposite operator="in" in2="blur"/>
      <feComposite in="SourceGraphic"/>
    </filter>
    <clipPath id="clip-path">
      <path id="Rectangle_46" data-name="Rectangle 46" d="M18.037,29.661,273.742,0,313,250,0,223.517Z" transform="translate(651.5 660)" fill="#fff"/>
    </clipPath>
    <linearGradient id="linear-gradient" x1="0.5" x2="0.5" y2="1" gradientUnits="objectBoundingBox">
      <stop offset="0" stop-color="#4bb665"/>
      <stop offset="1" stop-color="#41aad2"/>
    </linearGradient>
  </defs>
  <g id="Group_12" data-name="Group 12" transform="translate(-532.5 -571)">
    <g transform="matrix(1, 0, 0, 1, 532.5, 571)" filter="url(#Rectangle_45)">
      <path id="Rectangle_45-2" data-name="Rectangle 45" d="M18.037,29.661,273.742,0,313,250,0,223.517Z" transform="translate(120 90)" fill="#fff"/>
    </g>
    <g id="Mask_Group" data-name="Mask Group">
      <g id="Rectangle_46-2" data-name="Rectangle 46" clip-path="url(#clip-path)">
        <path id="Pattern" d="M341.01,112.217Q236.65,130.5,171.855,191.688c-9.438,8.914-13.931,14-14.216,16.142-.2,1.485,1.062,1.826,3.16,1.305a47.412,47.412,0,0,0,7.787-3.1c5.856-2.761,13.51-6.824,27.452-14.479.786-.431,13.888-7.64,17.982-9.882,7.323-4.01,13.575-7.4,19.655-10.637,6.593-3.513,12.775-6.738,18.7-9.748,39.119-19.867,66.517-30,81.428-28.28,7.7.889,11.577,2.214,11.992,3.765.36,1.349-1.979,3.408-7.069,6.083-4.367,2.3-10.135,4.807-20.476,9.027-.641.261-10.2,4.145-13.147,5.353-5.284,2.168-9.727,4.032-13.98,5.88-23.458,10.193-39.156,19.143-47.984,28.6-4.49,4.808-6.047,7.68-4.576,9.024,1.242,1.135,4.512.634,9.991-1.235,8.391-2.863,19.015-7.669,42.417-18.832l.524-.25c33.849-16.149,45.351-21.152,49.958-20.8l.08-1.061c-4.915-.371-16.1,4.493-50.5,20.905l-.524.25c-23.354,11.14-33.968,15.942-42.3,18.785-5.019,1.712-8.126,2.188-8.926,1.457-.75-.685.619-3.212,4.636-7.513,8.7-9.313,24.3-18.21,47.63-28.347,4.246-1.845,8.682-3.707,13.96-5.872,2.944-1.208,12.5-5.09,13.145-5.353,10.373-4.233,16.162-6.753,20.569-9.07,5.591-2.938,8.162-5.2,7.6-7.3-.586-2.2-4.7-3.6-12.9-4.548-15.21-1.755-42.7,8.413-82.034,28.389-5.933,3.013-12.121,6.242-18.72,9.757-6.085,3.242-12.34,6.631-19.666,10.643-4.095,2.242-17.2,9.452-17.983,9.883-13.922,7.644-21.565,11.7-27.394,14.45a46.7,46.7,0,0,1-7.589,3.032c-1.476.366-1.9.253-1.846-.132.236-1.768,4.738-6.863,13.892-15.509q64.67-61.08,169-79.264l.392-.068L344.5,91.464,344,91.375c-10.457-1.9-18.074-2.469-25.539-1.793-8.738.792-17.586,3.335-30.124,8.549-9.762,4.06-8.808,3.613-48.912,22.659q-4.531,2.152-9.245,4.711c-12.769,6.928-26.23,15.853-41.108,26.939-10.66,7.943-43.825,34.529-48.814,38-5.166,3.592-8.018,4.751-8.567,3.771-.742-1.325.92-6.036,5.315-14.393,7.971-15.157,34.17-35.119,83.506-66.346,4.38-2.772,9-5.674,14.329-9,4.421-2.761,20.251-12.61,23.5-14.635,9.024-5.631,15.935-9.987,22.328-14.089,15.975-10.252,27.7-18.3,36.466-25.185,10.169-7.987,16.143-14.272,17.811-19.1,1.9-5.5-1.73-9.056-10.966-10.515-12.354-1.951-29.074,4.563-50.369,18.7-17.547,11.645-37.42,27.816-63.337,50.909-4.934,4.4-10.1,9.053-16.016,14.426-3.1,2.82-6.258,5.694-10.479,9.548l-5.19,4.739c-2.093,1.911-3.636,3.32-5.147,4.7-8.269,7.542-14.271,12.975-20.02,18.1-14.664,13.081-26.042,22.672-35.841,30.046-23.4,17.608-37.015,21.774-41.653,11.232a18.5,18.5,0,0,1-.108-14.644c2.841-7.389,9.736-15.178,20.521-23.754,8.6-6.841,18.688-13.537,34.33-23.137,2.8-1.717,12.239-7.468,13.407-8.182,5.2-3.18,9.1-5.607,12.73-7.929,9.125-5.844,15.766-10.593,20.7-14.955,12.013-10.625,13.566-19.035,2.717-25.767-16.359-10.151-30.287-8.557-45.354,3.574-8.014,6.453-15.629,14.9-28.611,31.013-1.688,2.094-7.746,9.654-7.858,9.794-3.245,4.042-5.79,7.185-8.337,10.283-6.562,7.984-12.467,14.836-18.5,21.377q-4.376,4.746-8.765,9.174c-12.215,12.317-23.6,19.357-33.5,21.45-8.354,1.766-15.251-.147-19.516-4.8a15.392,15.392,0,0,1-3.019-15.837c2.252-6.026,8-10.579,16.525-12.34C40.642,135.09,57.711,119.883,74.5,96.337c5.468-7.667,10.58-15.757,15.75-24.657C92.74,67.4,98.721,56.668,99.36,55.592q7.377-12.419,41.941-33.665,8.947-4.37,11.971-7.57c2.168-2.3,2.107-4.362-.259-5.793-6.342-3.835-31.141,11.905-58.2,36.25a191.776,191.776,0,0,0-14.93,14.917c-2.4,2.681-9.1,10.559-9.873,11.433A76.511,76.511,0,0,1,59.614,81.238,96.554,96.554,0,0,1,43.209,91.425c-11.815,6.007-25.282,5.484-34.42.711C5.474,90.4,3.736,88.452,4.21,87.455c.566-1.191,3.989-1.509,9.816-.383,12.542,2.422,24.023-.256,34.907-7.5,9.2-6.121,17.768-15.286,26.942-28.052A135.658,135.658,0,0,1,90.431,34.9c4.064-4.048,17.24-16.276,19.178-18.245,2.474-2.512,3.872-4.259,4.322-5.53.6-1.7-.435-2.635-2.767-2.635-5.509,0-11.437,3.892-20.969,13.29-5.365,5.289-31.669,33.538-36.914,39.028C39.3,75.441,21.756,79.114,8.322,74.147,3.536,72.378.655,69.729,1.114,67.956c.514-1.982,5.015-2.942,12.95-2,18.015,2.147,34.506-8.276,53.371-29.236,2.309-2.565,4.613-5.233,7.346-8.481,1.164-1.383,5.523-6.611,6.538-7.815,4.931-5.853,7.9-9.036,10.442-10.985C95.1,6.875,97.11,4.384,97.427,2.535,97.78.48,96.108-.434,93.446.2,87.256,1.661,77.258,9.824,66.49,23.6q-24.3,31.09-55.862,15.679l-.467.957q32.344,15.718,57.17-15.981C77.963,10.652,87.79,2.629,93.692,1.232c2.022-.479,2.878-.011,2.684,1.123C96.115,3.877,94.26,6.18,91.111,8.6c-2.62,2.012-5.626,5.231-10.608,11.144-1.017,1.207-5.377,6.435-6.539,7.816-2.727,3.24-5.024,5.9-7.323,8.455C47.99,56.736,31.756,67,14.19,64.9,5.749,63.9.791,64.954.082,67.689-.568,70.2,2.7,73.206,7.951,75.145c13.826,5.111,31.818,1.344,46.1-13.6,5.26-5.5,31.547-33.735,36.892-39.006,9.338-9.207,15.09-12.983,20.219-12.983,1.691,0,2.072.342,1.762,1.216-.38,1.071-1.715,2.74-4.078,5.139-1.917,1.946-15.088,14.17-19.171,18.237A136.655,136.655,0,0,0,75.008,50.9C55.351,78.252,37.051,90.434,14.228,86.026,7.922,84.808,4.119,85.161,3.247,87c-.831,1.751,1.261,4.1,5.048,6.08,9.433,4.927,23.263,5.464,35.4-.706a97.594,97.594,0,0,0,16.583-10.3,77.54,77.54,0,0,0,10.533-10.2c.779-.885,7.474-8.758,9.867-11.426a190.716,190.716,0,0,1,14.85-14.836C122.067,21.728,146.781,6.041,152.46,9.476c1.735,1.049,1.772,2.307.034,4.154Q149.649,16.655,140.787,21,105.956,42.38,98.442,55.05c-.648,1.091-6.632,11.827-9.112,16.1-5.154,8.874-10.25,16.937-15.7,24.574-16.648,23.345-33.544,38.4-50.556,41.91-8.876,1.832-14.923,6.626-17.308,13.01A16.455,16.455,0,0,0,9,167.567c4.531,4.941,11.814,6.961,20.523,5.12,10.126-2.141,21.682-9.289,34.033-21.742q4.415-4.452,8.792-9.2c6.047-6.557,11.964-13.425,18.538-21.423,2.55-3.1,5.1-6.247,8.345-10.293.113-.141,6.17-7.7,7.857-9.793,12.935-16.053,20.514-24.462,28.45-30.852,14.73-11.86,28.168-13.4,44.122-3.5,10.095,6.264,8.694,13.846-2.861,24.067-4.882,4.318-11.483,9.039-20.566,14.856-3.618,2.317-7.517,4.741-12.711,7.917-1.167.713-10.609,6.465-13.409,8.183-15.677,9.621-25.791,16.336-34.436,23.211-10.92,8.684-17.927,16.6-20.852,24.2a19.562,19.562,0,0,0,.127,15.454c5.088,11.564,19.329,7.206,43.271-10.81,9.828-7.4,21.226-17,35.91-30.1,5.752-5.132,11.757-10.567,20.028-18.111,1.511-1.378,3.055-2.787,5.147-4.7l5.189-4.739c4.221-3.854,7.374-6.727,10.477-9.546,5.913-5.372,11.077-10.025,16.008-14.419,25.883-23.062,45.722-39.206,63.218-50.817,21.089-14,37.6-20.428,49.612-18.531,8.67,1.369,11.758,4.389,10.124,9.117-1.578,4.567-7.451,10.745-17.463,18.609-8.735,6.861-20.434,14.891-36.383,25.126-6.389,4.1-13.3,8.453-22.316,14.082-3.245,2.025-19.075,11.874-23.5,14.635-5.33,3.329-9.953,6.232-14.335,9.005-49.543,31.358-75.779,51.348-83.879,66.75-4.631,8.8-6.318,13.59-5.3,15.406,1.087,1.942,4.246.659,10.107-3.416,5.025-3.494,38.209-30.1,48.842-38.019,14.84-11.058,28.261-19.957,40.979-26.857q4.69-2.545,9.194-4.685c40.072-19.031,39.127-18.589,48.864-22.638,12.447-5.176,21.2-7.691,29.811-8.472,7.24-.656,14.643-.119,24.76,1.691Z" transform="translate(629.622 680.318)" fill="#fbc9a6" opacity="0.1"/>
      </g>
    </g>
    <g id="Сгруппировать_7112" data-name="Сгруппировать 7112" transform="translate(0 14)">
      <g id="Сгруппировать_7748" data-name="Сгруппировать 7748">
        <g id="Сгруппировать_7747" data-name="Сгруппировать 7747">
          <g id="Rectangle_43" data-name="Rectangle 43" transform="translate(729.5 713)" fill="none" stroke="#4bb666" stroke-width="1">
            <path d="M0,0H11a5,5,0,0,1,5,5V16a0,0,0,0,1,0,0H5a5,5,0,0,1-5-5V0A0,0,0,0,1,0,0Z" stroke="none"/>
            <path d="M1,.5H11A4.5,4.5,0,0,1,15.5,5V15a.5.5,0,0,1-.5.5H5A4.5,4.5,0,0,1,.5,11V1A.5.5,0,0,1,1,.5Z" fill="none"/>
          </g>
          <path id="Rectangle_42" data-name="Rectangle 42" d="M0,0H11a5,5,0,0,1,5,5V16a0,0,0,0,1,0,0H5a5,5,0,0,1-5-5V0A0,0,0,0,1,0,0Z" transform="translate(726.5 716)" fill="url(#linear-gradient)"/>
        </g>
      </g>
    </g>
    <g id="Сгруппировать_7113" data-name="Сгруппировать 7113" transform="translate(0 60)">
      <g id="Rectangle_43-2" data-name="Rectangle 43" transform="translate(729.5 713)" fill="none" stroke="#4bb666" stroke-width="1">
        <path d="M0,0H11a5,5,0,0,1,5,5V16a0,0,0,0,1,0,0H5a5,5,0,0,1-5-5V0A0,0,0,0,1,0,0Z" stroke="none"/>
        <path d="M1,.5H11A4.5,4.5,0,0,1,15.5,5V15a.5.5,0,0,1-.5.5H5A4.5,4.5,0,0,1,.5,11V1A.5.5,0,0,1,1,.5Z" fill="none"/>
      </g>
      <path id="Rectangle_42-2" data-name="Rectangle 42" d="M0,0H11a5,5,0,0,1,5,5V16a0,0,0,0,1,0,0H5a5,5,0,0,1-5-5V0A0,0,0,0,1,0,0Z" transform="translate(726.5 716)" fill="url(#linear-gradient)"/>
    </g>
    <g id="Сгруппировать_7114" data-name="Сгруппировать 7114" transform="translate(0 115)">
      <g id="Rectangle_43-3" data-name="Rectangle 43" transform="translate(729.5 713)" fill="none" stroke="#4bb666" stroke-width="1">
        <path d="M0,0H11a5,5,0,0,1,5,5V16a0,0,0,0,1,0,0H5a5,5,0,0,1-5-5V0A0,0,0,0,1,0,0Z" stroke="none"/>
        <path d="M1,.5H11A4.5,4.5,0,0,1,15.5,5V15a.5.5,0,0,1-.5.5H5A4.5,4.5,0,0,1,.5,11V1A.5.5,0,0,1,1,.5Z" fill="none"/>
      </g>
      <path id="Rectangle_42-3" data-name="Rectangle 42" d="M0,0H11a5,5,0,0,1,5,5V16a0,0,0,0,1,0,0H5a5,5,0,0,1-5-5V0A0,0,0,0,1,0,0Z" transform="translate(726.5 716)" fill="url(#linear-gradient)"/>
    </g>
  </g>
</svg>
