<svg xmlns="http://www.w3.org/2000/svg" width="179.011" height="165.793" viewBox="0 0 179.011 165.793">
  <g id="Group_96" data-name="Group 96" transform="translate(67.917 -749)" opacity="0.5">
    <path id="Rectangle_78" data-name="Rectangle 78" d="M5.543,0h3.7a0,0,0,0,1,0,0V3.7A5.543,5.543,0,0,1,3.7,9.239H0a0,0,0,0,1,0,0v-3.7A5.543,5.543,0,0,1,5.543,0Z" transform="translate(-25.475 749)" fill="#662d91"/>
    <path id="Rectangle_87" data-name="Rectangle 87" d="M5.543,0h3.7a0,0,0,0,1,0,0V3.7A5.543,5.543,0,0,1,3.7,9.239H0a0,0,0,0,1,0,0v-3.7A5.543,5.543,0,0,1,5.543,0Z" transform="translate(-25.475 780.311)" fill="#662d91"/>
    <path id="Rectangle_88" data-name="Rectangle 88" d="M5.543,0h3.7a0,0,0,0,1,0,0V3.7A5.543,5.543,0,0,1,3.7,9.239H0a0,0,0,0,1,0,0v-3.7A5.543,5.543,0,0,1,5.543,0Z" transform="translate(-25.475 811.622)" fill="#662d91"/>
    <path id="Rectangle_89" data-name="Rectangle 89" d="M5.543,0h3.7a0,0,0,0,1,0,0V3.7A5.543,5.543,0,0,1,3.7,9.239H0a0,0,0,0,1,0,0v-3.7A5.543,5.543,0,0,1,5.543,0Z" transform="translate(-25.475 842.933)" fill="#662d91"/>
    <path id="Rectangle_90" data-name="Rectangle 90" d="M5.543,0h3.7a0,0,0,0,1,0,0V3.7A5.543,5.543,0,0,1,3.7,9.239H0a0,0,0,0,1,0,0v-3.7A5.543,5.543,0,0,1,5.543,0Z" transform="translate(-25.475 874.244)" fill="#662d91"/>
    <path id="Rectangle_104" data-name="Rectangle 104" d="M5.543,0h3.7a0,0,0,0,1,0,0V3.7A5.543,5.543,0,0,1,3.7,9.239H0a0,0,0,0,1,0,0v-3.7A5.543,5.543,0,0,1,5.543,0Z" transform="translate(-25.475 905.554)" fill="#662d91"/>
    <path id="Rectangle_105" data-name="Rectangle 105" d="M5.543,0h3.7a0,0,0,0,1,0,0V3.7A5.543,5.543,0,0,1,3.7,9.239H0a0,0,0,0,1,0,0v-3.7A5.543,5.543,0,0,1,5.543,0Z" transform="translate(16.968 905.554)" fill="#662d91"/>
    <path id="Rectangle_106" data-name="Rectangle 106" d="M5.543,0h3.7a0,0,0,0,1,0,0V3.7A5.543,5.543,0,0,1,3.7,9.239H0a0,0,0,0,1,0,0v-3.7A5.543,5.543,0,0,1,5.543,0Z" transform="translate(59.411 905.554)" fill="#662d91"/>
    <path id="Rectangle_107" data-name="Rectangle 107" d="M5.543,0h3.7a0,0,0,0,1,0,0V3.7A5.543,5.543,0,0,1,3.7,9.239H0a0,0,0,0,1,0,0v-3.7A5.543,5.543,0,0,1,5.543,0Z" transform="translate(101.854 905.554)" fill="#662d91"/>
    <path id="Rectangle_79" data-name="Rectangle 79" d="M5.543,0h3.7a0,0,0,0,1,0,0V3.7A5.543,5.543,0,0,1,3.7,9.239H0a0,0,0,0,1,0,0v-3.7A5.543,5.543,0,0,1,5.543,0Z" transform="translate(-67.917 749)" fill="#662d91"/>
    <path id="Rectangle_83" data-name="Rectangle 83" d="M5.543,0h3.7a0,0,0,0,1,0,0V3.7A5.543,5.543,0,0,1,3.7,9.239H0a0,0,0,0,1,0,0v-3.7A5.543,5.543,0,0,1,5.543,0Z" transform="translate(-67.917 780.311)" fill="#662d91"/>
    <path id="Rectangle_84" data-name="Rectangle 84" d="M5.543,0h3.7a0,0,0,0,1,0,0V3.7A5.543,5.543,0,0,1,3.7,9.239H0a0,0,0,0,1,0,0v-3.7A5.543,5.543,0,0,1,5.543,0Z" transform="translate(-67.917 811.622)" fill="#662d91"/>
    <path id="Rectangle_85" data-name="Rectangle 85" d="M5.543,0h3.7a0,0,0,0,1,0,0V3.7A5.543,5.543,0,0,1,3.7,9.239H0a0,0,0,0,1,0,0v-3.7A5.543,5.543,0,0,1,5.543,0Z" transform="translate(-67.917 842.933)" fill="#662d91"/>
    <path id="Rectangle_86" data-name="Rectangle 86" d="M5.543,0h3.7a0,0,0,0,1,0,0V3.7A5.543,5.543,0,0,1,3.7,9.239H0a0,0,0,0,1,0,0v-3.7A5.543,5.543,0,0,1,5.543,0Z" transform="translate(-67.917 874.244)" fill="#662d91"/>
    <path id="Rectangle_103" data-name="Rectangle 103" d="M5.543,0h3.7a0,0,0,0,1,0,0V3.7A5.543,5.543,0,0,1,3.7,9.239H0a0,0,0,0,1,0,0v-3.7A5.543,5.543,0,0,1,5.543,0Z" transform="translate(-67.917 905.554)" fill="#662d91"/>
    <path id="Rectangle_80" data-name="Rectangle 80" d="M5.543,0h3.7a0,0,0,0,1,0,0V3.7A5.543,5.543,0,0,1,3.7,9.239H0a0,0,0,0,1,0,0v-3.7A5.543,5.543,0,0,1,5.543,0Z" transform="translate(16.968 749)" fill="#662d91"/>
    <path id="Rectangle_91" data-name="Rectangle 91" d="M5.543,0h3.7a0,0,0,0,1,0,0V3.7A5.543,5.543,0,0,1,3.7,9.239H0a0,0,0,0,1,0,0v-3.7A5.543,5.543,0,0,1,5.543,0Z" transform="translate(16.968 780.311)" fill="#662d91"/>
    <path id="Rectangle_92" data-name="Rectangle 92" d="M5.543,0h3.7a0,0,0,0,1,0,0V3.7A5.543,5.543,0,0,1,3.7,9.239H0a0,0,0,0,1,0,0v-3.7A5.543,5.543,0,0,1,5.543,0Z" transform="translate(16.968 811.622)" fill="#662d91"/>
    <path id="Rectangle_93" data-name="Rectangle 93" d="M5.543,0h3.7a0,0,0,0,1,0,0V3.7A5.543,5.543,0,0,1,3.7,9.239H0a0,0,0,0,1,0,0v-3.7A5.543,5.543,0,0,1,5.543,0Z" transform="translate(16.968 842.933)" fill="#662d91"/>
    <path id="Rectangle_94" data-name="Rectangle 94" d="M5.543,0h3.7a0,0,0,0,1,0,0V3.7A5.543,5.543,0,0,1,3.7,9.239H0a0,0,0,0,1,0,0v-3.7A5.543,5.543,0,0,1,5.543,0Z" transform="translate(16.968 874.244)" fill="#662d91"/>
    <path id="Rectangle_81" data-name="Rectangle 81" d="M5.543,0h3.7a0,0,0,0,1,0,0V3.7A5.543,5.543,0,0,1,3.7,9.239H0a0,0,0,0,1,0,0v-3.7A5.543,5.543,0,0,1,5.543,0Z" transform="translate(59.411 749)" fill="#662d91"/>
    <path id="Rectangle_95" data-name="Rectangle 95" d="M5.543,0h3.7a0,0,0,0,1,0,0V3.7A5.543,5.543,0,0,1,3.7,9.239H0a0,0,0,0,1,0,0v-3.7A5.543,5.543,0,0,1,5.543,0Z" transform="translate(59.411 780.311)" fill="#662d91"/>
    <path id="Rectangle_96" data-name="Rectangle 96" d="M5.543,0h3.7a0,0,0,0,1,0,0V3.7A5.543,5.543,0,0,1,3.7,9.239H0a0,0,0,0,1,0,0v-3.7A5.543,5.543,0,0,1,5.543,0Z" transform="translate(59.411 811.622)" fill="#662d91"/>
    <path id="Rectangle_97" data-name="Rectangle 97" d="M5.543,0h3.7a0,0,0,0,1,0,0V3.7A5.543,5.543,0,0,1,3.7,9.239H0a0,0,0,0,1,0,0v-3.7A5.543,5.543,0,0,1,5.543,0Z" transform="translate(59.411 842.933)" fill="#662d91"/>
    <path id="Rectangle_98" data-name="Rectangle 98" d="M5.543,0h3.7a0,0,0,0,1,0,0V3.7A5.543,5.543,0,0,1,3.7,9.239H0a0,0,0,0,1,0,0v-3.7A5.543,5.543,0,0,1,5.543,0Z" transform="translate(59.411 874.244)" fill="#662d91"/>
    <path id="Rectangle_82" data-name="Rectangle 82" d="M5.543,0h3.7a0,0,0,0,1,0,0V3.7A5.543,5.543,0,0,1,3.7,9.239H0a0,0,0,0,1,0,0v-3.7A5.543,5.543,0,0,1,5.543,0Z" transform="translate(101.855 749)" fill="#662d91"/>
    <path id="Rectangle_99" data-name="Rectangle 99" d="M5.543,0h3.7a0,0,0,0,1,0,0V3.7A5.543,5.543,0,0,1,3.7,9.239H0a0,0,0,0,1,0,0v-3.7A5.543,5.543,0,0,1,5.543,0Z" transform="translate(101.855 780.311)" fill="#662d91"/>
    <path id="Rectangle_100" data-name="Rectangle 100" d="M5.543,0h3.7a0,0,0,0,1,0,0V3.7A5.543,5.543,0,0,1,3.7,9.239H0a0,0,0,0,1,0,0v-3.7A5.543,5.543,0,0,1,5.543,0Z" transform="translate(101.855 811.622)" fill="#662d91"/>
    <path id="Rectangle_101" data-name="Rectangle 101" d="M5.543,0h3.7a0,0,0,0,1,0,0V3.7A5.543,5.543,0,0,1,3.7,9.239H0a0,0,0,0,1,0,0v-3.7A5.543,5.543,0,0,1,5.543,0Z" transform="translate(101.855 842.933)" fill="#662d91"/>
    <path id="Rectangle_102" data-name="Rectangle 102" d="M5.543,0h3.7a0,0,0,0,1,0,0V3.7A5.543,5.543,0,0,1,3.7,9.239H0a0,0,0,0,1,0,0v-3.7A5.543,5.543,0,0,1,5.543,0Z" transform="translate(101.855 874.244)" fill="#662d91"/>
  </g>
</svg>
