<svg xmlns="http://www.w3.org/2000/svg" xmlns:xlink="http://www.w3.org/1999/xlink" width="152.768" height="77.638" viewBox="0 0 152.768 77.638">
  <defs>
    <linearGradient id="linear-gradient" x1="0.5" x2="0.5" y2="1.363" gradientUnits="objectBoundingBox">
      <stop offset="0" stop-color="#a3f5b7"/>
      <stop offset="1" stop-color="#41aad2"/>
    </linearGradient>
  </defs>
  <g id="Сгруппировать_7116" data-name="Сгруппировать 7116" transform="translate(-948.065 -509.113)">
    <path id="Контур_7877" data-name="Контур 7877" d="M959.158,509.113a11.093,11.093,0,0,0,0,22.187h1.654a8.124,8.124,0,0,1,8.115,8.114v36.245a11.1,11.1,0,0,0,22.16.968,2.541,2.541,0,1,0-2.976-.1,8.126,8.126,0,0,1-16.205-.866V539.414a11.107,11.107,0,0,0-11.094-11.093h-1.654a8.115,8.115,0,1,1,0-16.23h41.7a8.115,8.115,0,0,1,0,16.23h-1.606a11.106,11.106,0,0,0-11.093,11.093v20.029l.007,2.471a3.2,3.2,0,1,1-6.406,0V536.6l.036-6.857A11.107,11.107,0,0,0,970.7,518.652h-6.3a2.531,2.531,0,1,0,0,2.978h6.3a8.123,8.123,0,0,1,8.116,8.107l-.037,6.857v25.32a6.181,6.181,0,1,0,12.363,0l-.007-22.5a8.124,8.124,0,0,1,8.115-8.114h1.606a11.093,11.093,0,0,0,0-22.187Z" fill-rule="evenodd" fill="url(#linear-gradient)"/>
    <path id="Контур_7878" data-name="Контур 7878" d="M1006.308,539.405V537.1H1019.3v2.309h-5.277v21.372h-2.408V539.405Zm33.509,3.859v17.513h-2.209v-3a8.8,8.8,0,0,1-7.025,3.463,8.535,8.535,0,0,1-6.432-2.688,9.158,9.158,0,0,1-2.573-6.58,8.947,8.947,0,0,1,2.606-6.514,8.694,8.694,0,0,1,6.464-2.655,8.411,8.411,0,0,1,6.96,3.661v-3.2Zm-8.987,1.715a6.419,6.419,0,0,0-5.986,3.562,6.985,6.985,0,0,0,0,7.058,6.894,6.894,0,0,0,2.561,2.622,6.709,6.709,0,0,0,3.425.94,6.4,6.4,0,0,0,5.986-3.463,7.23,7.23,0,0,0,.923-3.595,7.086,7.086,0,0,0-1.94-5.1,6.584,6.584,0,0,0-4.969-2.028Zm13.7-8.476h2.243v24.274h-2.243V536.5Zm21.669,18.47,1.914.989a9.076,9.076,0,0,1-4.915,4.617,9.4,9.4,0,0,1-3.463.66,8.8,8.8,0,0,1-6.547-2.589,8.976,8.976,0,0,1-2.556-6.58,9.358,9.358,0,0,1,2.045-5.936,8.354,8.354,0,0,1,6.926-3.332,8.64,8.64,0,0,1,7.157,3.4,9.416,9.416,0,0,1,1.946,6h-15.765a7.04,7.04,0,0,0,1.847,4.947,6.152,6.152,0,0,0,4.749,2.012,6.707,6.707,0,0,0,4.75-1.682,12.865,12.865,0,0,0,1.912-2.506Zm0-4.717a6.348,6.348,0,0,0-3.5-4.584,6.891,6.891,0,0,0-3.067-.693q-4.881,0-6.464,5.277Zm6.7-6.992h2.308V546.4a7.918,7.918,0,0,1,6.547-3.595,5.757,5.757,0,0,1,5.723,3.694,14.067,14.067,0,0,1,.725,5.277v9h-2.243v-8.344a20.906,20.906,0,0,0-.264-4.057,4.1,4.1,0,0,0-4.435-3.5,5.482,5.482,0,0,0-3.656,1.336,6.856,6.856,0,0,0-2.166,3.381,7.931,7.931,0,0,0-.231,1.814v9.366H1072.9V543.264Zm22.1-6.53h2.308v6.53h3.529v1.913H1097.3v15.6H1095v-15.6h-3.1v-1.913h3.1Z" fill="#fff" fill-rule="evenodd"/>
    <path id="Контур_7879" data-name="Контур 7879" d="M1011.707,564.086h.6v.8a1.856,1.856,0,0,1,1.592-.927,1.408,1.408,0,0,1,1.12.472,2.186,2.186,0,0,1,.35.648,2.075,2.075,0,0,1,1.207-1.05,1.626,1.626,0,0,1,.5-.07,1.393,1.393,0,0,1,1.408.927,3.691,3.691,0,0,1,.175,1.3v2.537h-.612V566.2a4.947,4.947,0,0,0-.044-.814,1.011,1.011,0,0,0-.359-.617,1.055,1.055,0,0,0-.682-.223,1.311,1.311,0,0,0-.8.263,1.528,1.528,0,0,0-.521.682,4.214,4.214,0,0,0-.175,1.426v1.82h-.586v-2.38a5.274,5.274,0,0,0-.053-.883.987.987,0,0,0-1.041-.928,1.334,1.334,0,0,0-1.3.928,3.563,3.563,0,0,0-.175,1.295v1.968h-.6v-4.646Zm12.843,0v4.646h-.586v-.8a2.335,2.335,0,0,1-1.864.918,2.262,2.262,0,0,1-1.706-.713,2.428,2.428,0,0,1-.682-1.745,2.373,2.373,0,0,1,.691-1.728,2.308,2.308,0,0,1,1.715-.7,2.231,2.231,0,0,1,1.846.971v-.849Zm-2.384.455a1.7,1.7,0,0,0-1.588.945,1.851,1.851,0,0,0,0,1.872,1.831,1.831,0,0,0,.679.7,1.786,1.786,0,0,0,.909.249,1.7,1.7,0,0,0,1.588-.918,1.925,1.925,0,0,0,.245-.954,1.88,1.88,0,0,0-.515-1.352,1.749,1.749,0,0,0-1.318-.538Zm3.723-.455h.612v.831a2.1,2.1,0,0,1,1.737-.953,1.527,1.527,0,0,1,1.518.98,3.731,3.731,0,0,1,.192,1.4v2.388h-.595v-2.214a5.546,5.546,0,0,0-.07-1.076,1.087,1.087,0,0,0-1.177-.927,1.45,1.45,0,0,0-.969.355,1.815,1.815,0,0,0-.575.9,2.122,2.122,0,0,0-.061.481v2.485h-.612v-4.646Zm9.973,0v4.646h-.586v-.8a2.335,2.335,0,0,1-1.863.918,2.262,2.262,0,0,1-1.707-.713,2.431,2.431,0,0,1-.682-1.745,2.377,2.377,0,0,1,.691-1.728,2.309,2.309,0,0,1,1.715-.7,2.231,2.231,0,0,1,1.846.971v-.849Zm-2.384.455a1.7,1.7,0,0,0-1.588.945,1.851,1.851,0,0,0,0,1.872,1.827,1.827,0,0,0,.68.7,1.783,1.783,0,0,0,.908.249,1.7,1.7,0,0,0,1.588-.918,1.925,1.925,0,0,0,.245-.954,1.88,1.88,0,0,0-.515-1.352,1.749,1.749,0,0,0-1.318-.538Zm7.73-.455h.612v3.7a4.341,4.341,0,0,1-.175,1.435,2.1,2.1,0,0,1-2.213,1.33,2.56,2.56,0,0,1-1.846-.621,2.623,2.623,0,0,1-.552-.832h.646a1.8,1.8,0,0,0,1.721.91,2.3,2.3,0,0,0,.933-.183,1.379,1.379,0,0,0,.7-.63,2.638,2.638,0,0,0,.175-1.111v-.237a2.281,2.281,0,0,1-1.859.884,2.392,2.392,0,0,1-1.193-.319,2.275,2.275,0,0,1-.872-.858,2.33,2.33,0,0,1-.311-1.185,2.419,2.419,0,0,1,2.393-2.406,2.4,2.4,0,0,1,1.842.927v-.8Zm-1.755.455a1.748,1.748,0,0,0-1.6.919,1.831,1.831,0,0,0-.262.945,1.674,1.674,0,0,0,.519,1.282,1.852,1.852,0,0,0,1.314.485,1.812,1.812,0,0,0,1.322-.49,1.753,1.753,0,0,0,.5-1.312,1.7,1.7,0,0,0-.882-1.593,1.822,1.822,0,0,0-.908-.236Zm7.546,2.651.508.263a2.41,2.41,0,0,1-1.3,1.225,2.5,2.5,0,0,1-.918.174,2.339,2.339,0,0,1-1.737-.686,2.382,2.382,0,0,1-.678-1.746,2.487,2.487,0,0,1,.542-1.575,2.217,2.217,0,0,1,1.837-.883,2.29,2.29,0,0,1,1.9.9,2.5,2.5,0,0,1,.516,1.592h-4.182a1.872,1.872,0,0,0,.49,1.313,1.636,1.636,0,0,0,1.26.533,1.777,1.777,0,0,0,1.26-.446,3.383,3.383,0,0,0,.507-.665Zm0-1.251a1.684,1.684,0,0,0-.927-1.216,1.837,1.837,0,0,0-.814-.184,1.7,1.7,0,0,0-1.714,1.4Zm1.776-1.855h.595v.8a1.856,1.856,0,0,1,1.593-.927,1.406,1.406,0,0,1,1.119.472,2.163,2.163,0,0,1,.351.648,2.069,2.069,0,0,1,1.207-1.05,1.624,1.624,0,0,1,.5-.07,1.394,1.394,0,0,1,1.409.927,3.691,3.691,0,0,1,.175,1.3v2.537h-.612V566.2a4.957,4.957,0,0,0-.044-.814,1.016,1.016,0,0,0-.359-.617,1.058,1.058,0,0,0-.682-.223,1.311,1.311,0,0,0-.8.263,1.534,1.534,0,0,0-.52.682,4.216,4.216,0,0,0-.175,1.426v1.82h-.587v-2.38a5.3,5.3,0,0,0-.052-.883.988.988,0,0,0-1.041-.928,1.335,1.335,0,0,0-1.3.928,3.583,3.583,0,0,0-.175,1.295v1.968h-.595v-4.646Zm12.118,3.106.507.263a2.41,2.41,0,0,1-1.3,1.225,2.5,2.5,0,0,1-.918.174,2.338,2.338,0,0,1-1.737-.686,2.382,2.382,0,0,1-.678-1.746,2.481,2.481,0,0,1,.543-1.575,2.214,2.214,0,0,1,1.837-.883,2.289,2.289,0,0,1,1.9.9,2.5,2.5,0,0,1,.517,1.592h-4.182a1.871,1.871,0,0,0,.489,1.313,1.637,1.637,0,0,0,1.26.533,1.777,1.777,0,0,0,1.26-.446,3.419,3.419,0,0,0,.508-.665Zm0-1.251a1.688,1.688,0,0,0-.928-1.216,1.836,1.836,0,0,0-.813-.184,1.7,1.7,0,0,0-1.715,1.4Zm1.776-1.855h.612v.831a2.1,2.1,0,0,1,1.737-.953,1.527,1.527,0,0,1,1.518.98,3.734,3.734,0,0,1,.192,1.4v2.388h-.595v-2.214a5.546,5.546,0,0,0-.07-1.076,1.087,1.087,0,0,0-1.176-.927,1.45,1.45,0,0,0-.97.355,1.815,1.815,0,0,0-.575.9,2.122,2.122,0,0,0-.061.481v2.485h-.612v-4.646Zm5.862-1.732h.612v1.732h.936v.508h-.936v4.138h-.612v-4.138h-.823v-.508h.823Z" fill="#fff" fill-rule="evenodd"/>
  </g>
</svg>
