<svg xmlns="http://www.w3.org/2000/svg" xmlns:xlink="http://www.w3.org/1999/xlink" width="1212.985" height="66.852" viewBox="0 0 1212.985 66.852">
  <defs>
    <clipPath id="clip-path">
      <path id="Контур_7139" data-name="Контур 7139" d="M33.571,18.034,23.087,11.981,2.866.305C1.743-.343.625.05.625,1.4V48.973c0,1.016.8,1.453,1.775.89S23.088,37.918,23.088,37.918l10.483-6.052,10.077-5.817c1.183-.683,1.069-1.619.071-2.157s-10.148-5.859-10.148-5.859Z" transform="translate(-0.625 0)"/>
    </clipPath>
    <linearGradient id="linear-gradient" x1="-35.861" y1="20.641" x2="-35.861" y2="19.641" gradientUnits="objectBoundingBox">
      <stop offset="0" stop-color="#207cb0"/>
      <stop offset="0.376" stop-color="#3cb2bf"/>
      <stop offset="0.796" stop-color="#58e9ce"/>
      <stop offset="1" stop-color="#63ffd4"/>
    </linearGradient>
    <linearGradient id="linear-gradient-2" x1="-28.663" y1="40.498" x2="-27.663" y2="40.498" gradientUnits="objectBoundingBox">
      <stop offset="0" stop-color="#4bc3ae"/>
      <stop offset="1" stop-color="#dee999"/>
    </linearGradient>
    <linearGradient id="linear-gradient-3" x1="-28.163" y1="39.001" x2="-28.163" y2="38.001" gradientUnits="objectBoundingBox">
      <stop offset="0" stop-color="#ec403d"/>
      <stop offset="0.384" stop-color="#c93b75"/>
      <stop offset="0.799" stop-color="#a636ac"/>
      <stop offset="1" stop-color="#9934c2"/>
    </linearGradient>
    <linearGradient id="linear-gradient-4" x1="-49.318" y1="74.129" x2="-49.318" y2="73.129" gradientUnits="objectBoundingBox">
      <stop offset="0" stop-color="#f87"/>
      <stop offset="0.612" stop-color="#ffb175"/>
      <stop offset="1" stop-color="#ffc774"/>
    </linearGradient>
  </defs>
  <g id="Сгруппировать_7097" data-name="Сгруппировать 7097" transform="translate(-180.63 -1675.568)">
    <g id="adobe-xd-logo-svgrepo-com" transform="translate(180.63 1675.569)">
      <path id="Контур_7129" data-name="Контур 7129" d="M10,10H68.176V66.59H10Z" transform="translate(-7.356 -7.356)" fill="#2e001e"/>
      <path id="Контур_7130" data-name="Контур 7130" d="M0,0V61.878H63.465V0ZM2.644,2.644H60.821v56.59H2.644Z" fill="#ff2bc2"/>
      <path id="Контур_7131" data-name="Контур 7131" d="M79.344,66.818a3.631,3.631,0,0,0-1.534-.264c-3.332,0-5.553,2.565-5.553,6.822,0,4.866,2.274,6.822,5.236,6.822a4.989,4.989,0,0,0,1.825-.291V66.818ZM67.5,73.588c0-6.161,3.967-10.974,10.472-10.974a11.726,11.726,0,0,1,1.375.053V55.791a.265.265,0,0,1,.264-.264h4.257c.212,0,.264.079.264.212v24.17a18.834,18.834,0,0,0,.132,2.591c0,.185,0,.212-.159.291a15.752,15.752,0,0,1-6.77,1.534c-5.738,0-9.837-3.543-9.837-10.736ZM58.479,69.3l7.4,14.359c.132.212.053.423-.159.423h-4.6a.519.519,0,0,1-.555-.344q-2.539-5.236-5.183-10.868h-.053c-1.587,3.543-3.332,7.4-5.024,10.895a.508.508,0,0,1-.476.291h-4.39c-.264,0-.291-.212-.159-.37L52.53,69.753,45.522,55.9a.234.234,0,0,1,.185-.4h4.548c.264,0,.4.053.476.291,1.666,3.517,3.358,6.981,4.945,10.525h.053c1.534-3.491,3.226-7.008,4.839-10.472.132-.212.212-.344.476-.344H65.3c.212,0,.291.159.159.4Z" transform="translate(-33.252 -40.824)" fill="#ff2bc2"/>
    </g>
    <g id="airbnb-2-logo-svgrepo-com" transform="translate(278.007 1679.499)">
      <path id="Контур_7132" data-name="Контур 7132" d="M59.179,36.318a8.269,8.269,0,0,0-.611-2.919c-.282-.719-.609-1.419-.928-2.122q-3.814-8.311-8-16.442c-.393-.757-.777-1.519-1.192-2.265a8.025,8.025,0,0,0-1.5-2A5.841,5.841,0,0,0,43.306,9h-.621a5.816,5.816,0,0,0-3.742,1.623A8.1,8.1,0,0,0,37.5,12.573c-.409.733-.788,1.483-1.173,2.228q-2.81,5.454-5.453,10.991c-1.05,2.209-2.092,4.422-3.094,6.652a10.865,10.865,0,0,0-.933,2.9,7.415,7.415,0,0,0,4.381,7.883,7.554,7.554,0,0,0,3.424.606,9.39,9.39,0,0,0,4.4-1.468,19.235,19.235,0,0,0,3.921-3.378,19.782,19.782,0,0,0,3.62,3.189,9.685,9.685,0,0,0,4.363,1.63,7.436,7.436,0,0,0,7.7-4.637,7.376,7.376,0,0,0,.525-2.856Zm-16.2-.661c-.427-.5-.8-1.047-1.182-1.587a19.451,19.451,0,0,1-1.68-2.939,9.65,9.65,0,0,1-.807-2.685,4.635,4.635,0,0,1,.205-2.213,3.262,3.262,0,0,1,1.3-1.606,4.035,4.035,0,0,1,4.7.292,3.412,3.412,0,0,1,1.13,2.2,7.1,7.1,0,0,1-.514,3.266A20.876,20.876,0,0,1,42.981,35.657ZM56.81,38.016a5.236,5.236,0,0,1-2.466,3.091,5.384,5.384,0,0,1-3.486.591,8.714,8.714,0,0,1-4.032-1.979,21.4,21.4,0,0,1-2.38-2.3,27.413,27.413,0,0,0,3.122-4.733,11.687,11.687,0,0,0,1.35-4.767,6.266,6.266,0,0,0-.665-3.084,5.66,5.66,0,0,0-3.142-2.7,6.43,6.43,0,0,0-3.9-.122,5.643,5.643,0,0,0-4.161,5.077,9.847,9.847,0,0,0,.849,4.553A24.054,24.054,0,0,0,41.5,37.4a19.657,19.657,0,0,1-2.088,2.075,9.389,9.389,0,0,1-3.983,2.157,5.465,5.465,0,0,1-3.635-.426,5.226,5.226,0,0,1-2.681-3.279,5.392,5.392,0,0,1,.119-3.16c.285-.837.673-1.635,1.035-2.441q3.773-8.222,7.912-16.267c.411-.8.817-1.6,1.252-2.385a5.356,5.356,0,0,1,1.353-1.7,3.615,3.615,0,0,1,4.485.084,6.249,6.249,0,0,1,1.419,1.927c.853,1.6,1.672,3.222,2.491,4.84q3.507,6.941,6.739,14.017a16.976,16.976,0,0,1,.893,2.233,5.366,5.366,0,0,1,0,2.935ZM30.78,48.158a1.429,1.429,0,1,1-.517.22,1.454,1.454,0,0,1,.517-.22Zm4.755,4.617a2.8,2.8,0,0,1,1.637-.842,3.844,3.844,0,0,1,1.227.078c-.005.649,0,1.3,0,1.946a3.261,3.261,0,0,0-1.934.031,2.3,2.3,0,0,0-.886.582c-.053.045-.04.119-.045.182,0,1.813,0,3.626,0,5.439a.623.623,0,0,1-.02.214c-.7.016-1.4,0-2.1.006q0-4.146,0-8.293c.59,0,1.18,0,1.77,0a.314.314,0,0,1,.315.186A1.711,1.711,0,0,1,35.535,52.775Zm15.1.007a3.03,3.03,0,0,1,2.169-.867,3.534,3.534,0,0,1,2.356.774,2.563,2.563,0,0,1,.89,1.339,7.092,7.092,0,0,1,.166,1.99q0,2.2,0,4.393c-.706,0-1.412,0-2.118,0q0-2.195,0-4.391a3.08,3.08,0,0,0-.263-1.615,1.264,1.264,0,0,0-.984-.561,2.308,2.308,0,0,0-2,.708.266.266,0,0,0-.094.2c-.007.226.027.453.008.68-.028.308.015.616.005.924q-.014.873,0,1.746c-.04.77.03,1.542-.016,2.31-.7,0-1.406,0-2.109,0,0-2.765-.005-5.53,0-8.3.544,0,1.089,0,1.632,0a.314.314,0,0,1,.331.213A2.321,2.321,0,0,1,50.631,52.782Zm-20.626,7.63q0-4.148,0-8.3,1.051,0,2.1,0c.005,2.765,0,5.53,0,8.294ZM28.7,52.119c-.555,0-1.11,0-1.666,0-.147,0-.334.006-.406.161a1.441,1.441,0,0,0-.045.5A2.818,2.818,0,0,0,24.8,51.93a4.268,4.268,0,0,0-2.929.82,4.148,4.148,0,0,0-1.451,2.036,5.339,5.339,0,0,0-.231,1.166v.568a4.37,4.37,0,0,0,1.51,3.13,4.291,4.291,0,0,0,2.495.976h.472a2.859,2.859,0,0,0,1.916-.88,1.476,1.476,0,0,0,.044.506.361.361,0,0,0,.354.161c.573,0,1.147,0,1.72,0Q28.7,56.265,28.7,52.119Zm-2.183,5.71a2.246,2.246,0,0,1-1.767.8,2.32,2.32,0,0,1-2.412-2.8,2.185,2.185,0,0,1,.8-1.424,2.58,2.58,0,0,1,1.42-.518,2.307,2.307,0,0,1,2.013.88c.026.9,0,1.8.012,2.707-.007.119.025.262-.07.355Zm20.91-3.338a4.136,4.136,0,0,0-1.639-1.945,4.3,4.3,0,0,0-2.548-.623,2.851,2.851,0,0,0-1.869.855c0-1.549,0-3.1,0-4.646-.706,0-1.413,0-2.12,0,0,4.091-.006,8.185.005,12.276q.877,0,1.756,0a.322.322,0,0,0,.342-.216,2.48,2.48,0,0,0,.019-.456,2.833,2.833,0,0,0,1.937.886h.433A4.218,4.218,0,0,0,46.8,59.094a4.647,4.647,0,0,0,.623-4.6Zm-2.47,3.49a2.57,2.57,0,0,1-1.768.644,2.238,2.238,0,0,1-1.757-.808.255.255,0,0,1-.065-.2q0-1.424,0-2.847a2.345,2.345,0,0,1,1.72-.893,2.6,2.6,0,0,1,1.875.653,2.5,2.5,0,0,1,0,3.449Zm19.9-4.517a4.207,4.207,0,0,0-3.866-1.507,2.792,2.792,0,0,0-1.583.821c0-1.548,0-3.1,0-4.645q-1.058,0-2.115,0,0,6.138,0,12.277c.556,0,1.113,0,1.669,0,.146,0,.329-.009.4-.159a1.451,1.451,0,0,0,.045-.51,2.861,2.861,0,0,0,1.907.881h.476a4.222,4.222,0,0,0,3.032-1.514,4.464,4.464,0,0,0,.978-2.587v-.555a4.5,4.5,0,0,0-.945-2.506Zm-1.651,4.278a2.567,2.567,0,0,1-2.421.848,2.189,2.189,0,0,1-1.365-.843c-.035-.348,0-.7-.014-1.051.007-.644-.016-1.29.011-1.932a2.29,2.29,0,0,1,1.362-.843,2.479,2.479,0,0,1,2.607,1.109,2.569,2.569,0,0,1-.18,2.712Z" transform="translate(-20.19 -8.999)" fill="#ff7977"/>
    </g>
    <g id="google-icon-logo-svgrepo-com" transform="translate(346.382 1675.569)">
      <path id="Контур_7133" data-name="Контур 7133" d="M160.252,113.086a26.513,26.513,0,0,0-.653-6.325H130.55v11.482H147.6a15.12,15.12,0,0,1-6.325,10.038l-.058.384,9.185,7.115.636.064c5.844-5.4,9.213-13.338,9.213-22.758" transform="translate(-99.611 -81.46)" fill="#4285f4"/>
      <path id="Контур_7134" data-name="Контур 7134" d="M41.564,181.19c8.353,0,15.366-2.75,20.489-7.494l-9.763-7.563a18.312,18.312,0,0,1-10.726,3.094,18.626,18.626,0,0,1-17.6-12.857l-.363.031-9.55,7.391-.125.347A30.917,30.917,0,0,0,41.564,181.19" transform="translate(-10.625 -119.312)" fill="#34a853"/>
      <path id="Контур_7135" data-name="Контур 7135" d="M13.338,91.47a19.047,19.047,0,0,1-1.031-6.119,20.015,20.015,0,0,1,1-6.119l-.017-.41-9.67-7.51-.316.15a30.874,30.874,0,0,0,0,27.777L13.338,91.47" transform="translate(0 -54.412)" fill="#fbbc05"/>
      <path id="Контур_7136" data-name="Контур 7136" d="M41.564,11.963A17.147,17.147,0,0,1,53.527,16.57l8.732-8.526A29.726,29.726,0,0,0,41.564,0,30.917,30.917,0,0,0,13.925,17.051l10,7.769A18.7,18.7,0,0,1,41.564,11.963" transform="translate(-10.625)" fill="#eb4335"/>
    </g>
    <path id="instagram-logo-svgrepo-com" d="M14.066.5C11.9.5,9.094,2.8,7.438,4.324,3.8,7.556.5,13.5.5,18.267.5,25.043,6.263,27.6,7.721,27.6a.815.815,0,0,0,.89-.9,2.434,2.434,0,0,0-.647-1.374A11.106,11.106,0,0,1,6.2,18.713,20.486,20.486,0,0,1,10.822,5.921c.386-.416,1.259-1.314,1.52-1.314s.323.211.323.864l-.243,35.843c0,5.6-1.617,7.829-1.617,9.148,0,.58.251.73.73.73,2.269,0,4.53-2.765,5.171-3.774,1.986-3.431,2.474-6.11,2.474-13.836V3.464a1.686,1.686,0,0,0-1-1.67A7.419,7.419,0,0,0,14.066.5ZM78.94.6c-1.067,0-1.523.558-1.574,2.284l-.237,7.148-6.251-.217a.662.662,0,0,0-.716.443,5.807,5.807,0,0,0-.81,3.074c0,1.057.479,1.17.907,1.17l6.5.187-.02,13.656c0,2.9-1.828,6.654-5.071,9.778a7.339,7.339,0,0,0,.263-1.933c0-2.8-1.8-5.341-4.207-7.138L61.86,24.638c1.23-1.423,3.314-4.245,3.314-6.628,0-1.848-1.162-2.624-3.327-2.624a6.965,6.965,0,0,0-6.6,6.951,5.6,5.6,0,0,0,1.7,3.917c-1.413,2.681-3.413,6.209-4.9,8.722-1.121,1.924-3.019,4.871-4.141,4.871-.828,0-1.21-1.3-1.21-6.3,0-4.156.3-8.675.443-13.012a2.993,2.993,0,0,0-1.454-2.81C44.5,16.96,43.03,15.9,41.52,15.9c-3.358,0-5.645,3.09-7.214,6.111a57.833,57.833,0,0,0-3.741,9.6L30.7,18.431c.042-.939-.2-1.3-.947-1.624a10.218,10.218,0,0,0-3.684-.89c-1.064,0-1.193.459-1.193,1.577L24.734,33.3l-.016,6.1c0,5.5.688,6.414,3.951,6.414,1.806,0,2.385-.212,2.42-1.713a37.442,37.442,0,0,1,1.167-5.811c1.879-7.121,4.106-12.753,7.945-17.046.4-.417.71-.268.647.323,0,0-.607,9.637-.607,13.579,0,7.011,1.079,10.669,4.567,10.669,3.424,0,6.786-4.4,8.622-7.368L59.317,28.6c3.815,3.251,6.478,5.772,6.478,8.838,0,1.906-1.2,3.771-3.034,3.771-2.289,0-3.752-2.414-5.3-2.414-1.283,0-2.93,2.478-2.93,3.884,0,1.328,2.9,3.207,8.1,3.207,7.676,0,11.794-5.268,14.266-11.1.473,6.924,3.232,10.968,7.535,10.968,2.822,0,6.084-3.566,7.568-7.921a12.936,12.936,0,0,0,1.273,3.447,7.32,7.32,0,0,0,6.838,4.414c3.643,0,6.759-2.209,8.661-5.914a6.546,6.546,0,0,0,6.438,5.9c2.38,0,4.55-1.824,5.974-4.828,0,0,1.845,4.961,7.181,4.961,3,0,6.546-2.777,7.395-4.794l.093,2.934-7.918,7.3c-2.3,2.232-4.745,5.438-4.745,8.988,0,4.515,4.263,7.111,8.015,7.111a9.637,9.637,0,0,0,7.9-4.541c1.784-2.679,2.537-7.727,2.537-12.662l-.177-7.421a58.9,58.9,0,0,0,11.372-19.71l4.051-.107c.785-.053.746.256.637.714a43.252,43.252,0,0,0-1.334,9.808c0,5.606,1.291,8.045,3.147,10.038a6.494,6.494,0,0,0,4.907,2.234c3.3,0,5.377-2.728,6.035-4.447,1.551,3.025,3.836,4.434,6.764,4.434,3.643,0,6.759-2.209,8.662-5.914a6.546,6.546,0,0,0,6.438,5.9c2.833,0,4.476-1.635,5.768-4.714.026.991.064,2.047.093,3.037a1.161,1.161,0,0,0,.81.97,9.165,9.165,0,0,0,3.21.684c2.476,0,3.014-.509,3.014-2.127a50.727,50.727,0,0,1,.837-10.275,34.705,34.705,0,0,1,3.7-9.845.28.28,0,0,1,.537.13c.241,5.683.621,15.3,2.114,17.793a4.033,4.033,0,0,0,3.58,2.054,4.173,4.173,0,0,0,2.03-.553.881.881,0,0,0,.367-.827,45.906,45.906,0,0,1,4.534-19.027c.062-.14.239-.151.233.033l-.127,5.234c0,8.6.62,14.028,4.914,16.64a5.627,5.627,0,0,0,2.764.716,5.762,5.762,0,0,0,5.174-3.2,16.712,16.712,0,0,0,1.554-6.157c0-.647.008-1.7-1.053-1.7-.582,0-.931.429-1.07,1.077a31.393,31.393,0,0,1-1.14,4c-.5,1.325-1.25,2.1-2.137,2.1a2.228,2.228,0,0,1-1.874-1.327c-1.33-2.029-1.437-6.689-1.437-10.579l.32-10.012a2.856,2.856,0,0,0-1.624-2.55,11.461,11.461,0,0,0-4.357-1.424,2.341,2.341,0,0,0-2.274,1.723,64.369,64.369,0,0,0-4.371,14.933c-.027.155-.22.187-.233-.01-.389-4.152-.588-9.154-.584-12.529a3.451,3.451,0,0,0-2.414-3.424,7.413,7.413,0,0,0-2.984-.7c-1.318,0-1.6.645-2.074,1.5-1.493,2.759-2.526,6.357-4.074,10.9l.023-10.385a1.321,1.321,0,0,0-1.15-1.293,19.812,19.812,0,0,0-3.927-.706.94.94,0,0,0-.94,1.007l-.114,17.707c-.409,2.168-2.066,7.341-4.418,7.341-1.93,0-2.83-1.955-2.83-10.128l.35-13.283c0-.839-.551-1.191-1.353-1.547a8.081,8.081,0,0,0-3.227-.637c-1.464,0-1.967.7-1.67,2.384-1.609-2.177-3.218-3.381-6.061-3.381-5.707,0-10.008,6.864-10.008,16.84a24.922,24.922,0,0,0,.62,5.577c-.516,2.322-1.73,4.214-3.407,4.214-2.116,0-3.464-2.991-3.464-8.175,0-5.2,1.98-11.063,1.98-12.652,0-1.848-1.211-3.017-3.354-3.017-1.074,0-5.056.9-7.1,1.2a8.32,8.32,0,0,0,.213-1.737c0-1.822-.855-2.964-2.977-2.964-2.593,0-4.5,1.852-4.5,5.011a4.215,4.215,0,0,0,1.9,3.434,42.437,42.437,0,0,1-7.045,15.063L141.7,18.4c0-.64-.17-1.037-1.424-1.524a7.909,7.909,0,0,0-3.1-.617c-1.973,0-1.842,1.409-1.737,2.464a6.79,6.79,0,0,0-5.928-3.5c-8.308,0-10.859,12.67-9.608,21.667,0,1.1-1.071,4.991-3.491,4.991-1.93,0-2.83-1.955-2.83-10.128l.354-13.283c0-.839-.555-1.192-1.357-1.547a8.066,8.066,0,0,0-3.224-.637c-1.464,0-1.967.7-1.671,2.384-1.609-2.177-3.222-3.381-6.064-3.381-5.707,0-10.065,6.278-10.065,16.253,0,3.808-3.279,9.618-5.578,9.618-1.277,0-2.637-2.345-2.637-8.335.006-4.083.563-17.983.563-17.983l8.025-.13c.383,0,.6-.422.747-.68a4.207,4.207,0,0,0,.547-2.14c0-.807-.162-1.1-1.2-1.16l-8-.48.34-7.451c.024-.47-.26-.777-.774-1.007A15.35,15.35,0,0,0,78.94.6Zm24.287,19.523c2.14,0,4.311,1.951,4.311,8.875,0,8.717-3.176,12.773-5.618,12.773-2.289,0-4.027-3.231-4.027-9.578C97.893,25.777,99.591,20.123,103.228,20.123Zm77.053,0c2.14,0,4.311,1.951,4.311,8.875,0,8.717-3.176,12.773-5.618,12.773-2.289,0-4.027-3.231-4.027-9.578C174.947,25.777,176.644,20.123,180.281,20.123Zm-48.872.04c2.792,0,4.027,2.878,4.027,8.458,0,8.412-2.5,13.2-5.538,13.2-1.939,0-4.168-3.183-4.051-9.445,0-4,1.305-12.215,5.561-12.215Zm4.727,28.142v3.314c0,11-2.93,12.872-5.284,12.872a3.172,3.172,0,0,1-3.077-3.394c0-3.8,3.976-8.128,5.211-9.465l3.15-3.327Z" transform="translate(446.256 1675.069)" fill="#3f5d87"/>
    <path id="spotify-1-logo-svgrepo-com" d="M104.932,1369.15a30.5,30.5,0,1,0,30.5,30.5,30.5,30.5,0,0,0-30.5-30.5h0Zm13.988,43.992a1.9,1.9,0,0,1-2.614.633c-7.163-4.378-16.178-5.367-26.8-2.941a1.9,1.9,0,1,1-.846-3.706c11.619-2.656,21.586-1.513,29.626,3.4a1.9,1.9,0,0,1,.63,2.615h0Zm3.733-8.3a2.379,2.379,0,0,1-3.271.783c-8.2-5.039-20.7-6.5-30.394-3.554a2.378,2.378,0,1,1-1.382-4.55c11.078-3.361,24.848-1.733,34.264,4.053a2.377,2.377,0,0,1,.783,3.269h0Zm.321-8.648c-9.832-5.839-26.05-6.376-35.436-3.527a2.853,2.853,0,1,1-1.656-5.46c10.774-3.271,28.686-2.639,40,4.08a2.853,2.853,0,0,1-2.911,4.907h0Zm34.442,1.119c-5.266-1.256-6.2-2.137-6.2-3.99,0-1.75,1.647-2.927,4.1-2.927a11.972,11.972,0,0,1,7.2,2.735.345.345,0,0,0,.26.063.34.34,0,0,0,.228-.141l2.572-3.625a.345.345,0,0,0-.066-.469,15.559,15.559,0,0,0-10.114-3.5c-5.686,0-9.658,3.412-9.658,8.3,0,5.236,3.426,7.09,9.347,8.521,5.04,1.161,5.89,2.133,5.89,3.872,0,1.926-1.72,3.124-4.488,3.124-3.074,0-5.582-1.035-8.387-3.464a.361.361,0,0,0-.253-.082.342.342,0,0,0-.237.122l-2.883,3.431a.342.342,0,0,0,.034.478,17.19,17.19,0,0,0,11.609,4.452c6.128,0,10.087-3.348,10.087-8.53.011-4.374-2.608-6.8-9.022-8.357l-.011,0Zm22.9-5.194a8.263,8.263,0,0,0-6.631,3.19v-2.413a.345.345,0,0,0-.345-.346h-4.716a.345.345,0,0,0-.345.346V1419.7a.345.345,0,0,0,.345.345h4.716a.345.345,0,0,0,.345-.345v-8.463a8.471,8.471,0,0,0,6.631,3c4.935,0,9.931-3.8,9.931-11.061s-4.99-11.064-9.925-11.064Zm4.447,11.064c0,3.7-2.278,6.279-5.54,6.279-3.225,0-5.657-2.7-5.657-6.279s2.432-6.279,5.657-6.279c3.209,0,5.54,2.64,5.54,6.278Zm18.288-11.064a11.086,11.086,0,1,0,11.295,11.064,11.12,11.12,0,0,0-11.295-11.064Zm0,17.379a6,6,0,0,1-5.929-6.317c0-3.616,2.46-6.241,5.851-6.241a6.016,6.016,0,0,1,5.968,6.32c0,3.616-2.477,6.238-5.89,6.238Zm24.866-16.948h-5.189v-5.305a.345.345,0,0,0-.344-.345h-4.715a.346.346,0,0,0-.346.345v5.305h-2.267a.345.345,0,0,0-.343.346v4.053a.345.345,0,0,0,.343.346h2.267v10.487c0,4.238,2.109,6.386,6.269,6.386a8.6,8.6,0,0,0,4.417-1.1.344.344,0,0,0,.174-.3v-3.859a.346.346,0,0,0-.5-.31,5.942,5.942,0,0,1-2.768.668c-1.513,0-2.188-.687-2.188-2.226v-9.746h5.189a.345.345,0,0,0,.344-.346v-4.052a.334.334,0,0,0-.339-.346Zm18.081.021v-.652c0-1.917.735-2.772,2.384-2.772a7.956,7.956,0,0,1,2.657.49.345.345,0,0,0,.453-.328v-3.974a.345.345,0,0,0-.244-.331,12.949,12.949,0,0,0-3.919-.563c-4.356,0-6.658,2.453-6.658,7.091v1H238.4a.347.347,0,0,0-.346.345v4.073a.347.347,0,0,0,.346.346h2.266v16.175a.345.345,0,0,0,.344.346h4.716a.346.346,0,0,0,.346-.346v-16.174h4.4l6.745,16.171c-.766,1.7-1.519,2.037-2.546,2.037a5.439,5.439,0,0,1-2.6-.738.353.353,0,0,0-.275-.026.349.349,0,0,0-.2.186l-1.6,3.507a.343.343,0,0,0,.149.446,9.931,9.931,0,0,0,5.036,1.289c3.482,0,5.407-1.622,7.1-5.986l8.181-21.14a.345.345,0,0,0-.32-.471h-4.909a.346.346,0,0,0-.327.232l-5.029,14.365-5.508-14.374a.344.344,0,0,0-.322-.222H246Zm-10.483-.021H230.8a.346.346,0,0,0-.346.346v20.574a.346.346,0,0,0,.346.346h4.716a.346.346,0,0,0,.346-.346v-20.573a.345.345,0,0,0-.346-.345Zm-2.331-9.368a3.382,3.382,0,1,0,3.382,3.38,3.382,3.382,0,0,0-3.382-3.38Zm41.312,15.983a3.328,3.328,0,1,1,3.336-3.338,3.306,3.306,0,0,1-3.336,3.338Zm.018-6.325a3,3,0,1,0,2.97,2.987,2.968,2.968,0,0,0-2.97-2.987h0Zm.736,3.328.939,1.314h-.791l-.845-1.206h-.727v1.206h-.663v-3.484h1.553c.809,0,1.342.414,1.342,1.111a1.034,1.034,0,0,1-.8,1.058Zm-.561-1.572h-.864v1.1h.864c.431,0,.689-.211.689-.552,0-.358-.259-.55-.688-.55h0Z" transform="translate(672.635 306.419)" fill="#2ebd59"/>
    <g id="google-play-logo-svgrepo-com" transform="translate(990.337 1681.015)">
      <g id="Сгруппировать_7066" data-name="Сгруппировать 7066" transform="translate(0 0)" clip-path="url(#clip-path)">
        <path id="Контур_7138" data-name="Контур 7138" d="M.625-.888v51.5L26.6,24.864Z" transform="translate(-0.625 0.086)" fill="url(#linear-gradient)"/>
      </g>
      <g id="Сгруппировать_7068" data-name="Сгруппировать 7068" transform="translate(0 0)">
        <g id="Сгруппировать_7067" data-name="Сгруппировать 7067" clip-path="url(#clip-path)">
          <path id="Контур_7140" data-name="Контур 7140" d="M33.571,17.927,23.087,11.875.625-1.1v.187L26.6,24.844Z" transform="translate(-0.625 0.106)" fill="url(#linear-gradient-2)"/>
        </g>
      </g>
      <g id="Сгруппировать_7070" data-name="Сгруппировать 7070" transform="translate(0 0)">
        <g id="Сгруппировать_7069" data-name="Сгруппировать 7069" clip-path="url(#clip-path)">
          <path id="Контур_7142" data-name="Контур 7142" d="M.625,53.385v.187L23.087,40.6,33.57,34.551,26.6,27.635Z" transform="translate(-0.625 -2.684)" fill="url(#linear-gradient-3)"/>
        </g>
      </g>
      <g id="Сгруппировать_7072" data-name="Сгруппировать 7072" transform="translate(0 0)">
        <g id="Сгруппировать_7071" data-name="Сгруппировать 7071" clip-path="url(#clip-path)">
          <path id="Контур_7144" data-name="Контур 7144" d="M36.366,19.974,29.39,26.891l6.975,6.916L48.346,26.89Z" transform="translate(-3.419 -1.94)" fill="url(#linear-gradient-4)"/>
        </g>
      </g>
      <g id="Сгруппировать_7073" data-name="Сгруппировать 7073" transform="translate(156.531 13.48)">
        <path id="Контур_7146" data-name="Контур 7146" d="M180.967,36.468a6.474,6.474,0,0,1-2.672-.54,5.031,5.031,0,0,1-2.03-1.661H176.1a20.134,20.134,0,0,1,.164,2.488v6.162H174v-21.7h1.845l.314,2.05h.109A5.274,5.274,0,0,1,178.3,21.49a6.2,6.2,0,0,1,2.664-.546,5.538,5.538,0,0,1,4.6,2.036,8.971,8.971,0,0,1,1.621,5.712,8.915,8.915,0,0,1-1.647,5.734,5.553,5.553,0,0,1-4.573,2.041Zm-.328-13.6a4.02,4.02,0,0,0-3.321,1.271,6.539,6.539,0,0,0-1.053,4.046v.506a7.5,7.5,0,0,0,1.053,4.517,4,4,0,0,0,3.375,1.361A3.51,3.51,0,0,0,183.735,33a7.455,7.455,0,0,0,1.1-4.333,7.172,7.172,0,0,0-1.1-4.3A3.616,3.616,0,0,0,180.639,22.871Zm11.8,13.323h-2.27V14.93h2.27V36.194Zm13.042,0-.451-2.132h-.109a6.274,6.274,0,0,1-2.235,1.906,6.8,6.8,0,0,1-2.781.5,5,5,0,0,1-3.491-1.148,4.183,4.183,0,0,1-1.264-3.266q0-4.537,7.256-4.756l2.542-.082v-.929a3.786,3.786,0,0,0-.76-2.6,3.117,3.117,0,0,0-2.426-.841,9.886,9.886,0,0,0-4.236,1.148l-.7-1.735a10.648,10.648,0,0,1,2.427-.943,10.519,10.519,0,0,1,2.645-.341,5.7,5.7,0,0,1,3.969,1.189,4.965,4.965,0,0,1,1.291,3.813V36.2h-1.68v0Zm-5.125-1.6a4.614,4.614,0,0,0,3.328-1.161,4.3,4.3,0,0,0,1.21-3.254V28.829l-2.27.094a8.239,8.239,0,0,0-3.9.842,2.531,2.531,0,0,0-1.194,2.315,2.331,2.331,0,0,0,.744,1.872A3.079,3.079,0,0,0,200.355,34.6Zm8.123-13.379h2.431l3.28,8.541a32.406,32.406,0,0,1,1.34,4.224h.109q.177-.7.744-2.387t3.71-10.379h2.432L216.088,38.27a8.513,8.513,0,0,1-2.236,3.589,4.755,4.755,0,0,1-3.136,1.058,9.16,9.16,0,0,1-2.05-.232V40.869a7.923,7.923,0,0,0,1.682.164q2.336,0,3.333-2.624l.833-2.131Z" transform="translate(-173.998 -14.93)" fill="gray"/>
      </g>
      <g id="Сгруппировать_7074" data-name="Сгруппировать 7074" transform="translate(53.114 11.803)">
        <path id="Контур_7147" data-name="Контур 7147" d="M127.817,22.5a5.279,5.279,0,0,1,2.224,4.23c0,2.316-1.315,3.415-2.631,4.447a2.205,2.205,0,0,0-.878,1.537,1.72,1.72,0,0,0,.814,1.346l1.129.876c1.379,1.159,2.631,2.226,2.631,4.387,0,2.945-2.851,5.921-8.239,5.921-4.544,0-6.736-2.161-6.736-4.481a4.507,4.507,0,0,1,2.412-3.822,13.528,13.528,0,0,1,5.983-1.442,3.284,3.284,0,0,1-.94-2.127,2.813,2.813,0,0,1,.314-1.222c-.346.032-.69.062-1,.062a4.952,4.952,0,0,1-5.2-4.917,5.633,5.633,0,0,1,2-4.2,8.542,8.542,0,0,1,5.609-1.724h6.452L129.758,22.5h-1.941Zm-2.225,13.91a5.027,5.027,0,0,0-.72-.032,12.472,12.472,0,0,0-3.292.5c-.689.247-2.694,1-2.694,3.226s2.163,3.822,5.516,3.822c3,0,4.6-1.445,4.6-3.385,0-1.6-1.033-2.443-3.415-4.135Zm.909-5.953a3.167,3.167,0,0,0,.781-2.287c0-2.255-1.346-5.764-3.945-5.764a2.932,2.932,0,0,0-2.195,1.035,3.627,3.627,0,0,0-.69,2.319c0,2.1,1.222,5.576,3.918,5.576A3.214,3.214,0,0,0,126.5,30.461Zm-18.407,5.451a7.381,7.381,0,0,1-7.631-7.383,7.749,7.749,0,0,1,8.1-7.6,7.313,7.313,0,0,1,7.474,7.382A7.643,7.643,0,0,1,108.095,35.912ZM112,33.379a5.65,5.65,0,0,0,.94-3.474c0-2.753-1.313-8.007-5.191-8.007a4.354,4.354,0,0,0-2.814,1.065,4.733,4.733,0,0,0-1.44,3.816c0,3.095,1.533,8.192,5.319,8.192A3.989,3.989,0,0,0,112,33.379ZM91.142,35.912A7.381,7.381,0,0,1,83.51,28.53a7.751,7.751,0,0,1,8.1-7.6,7.312,7.312,0,0,1,7.475,7.382,7.644,7.644,0,0,1-7.945,7.6Zm3.909-2.533A5.661,5.661,0,0,0,95.99,29.9c0-2.753-1.315-8.007-5.193-8.007a4.355,4.355,0,0,0-2.814,1.065,4.731,4.731,0,0,0-1.438,3.816c0,3.095,1.531,8.192,5.318,8.192a3.993,3.993,0,0,0,3.189-1.593ZM81.12,35.422l-4.5,1.037a33.463,33.463,0,0,1-5.188.533c-8.68,0-11.981-6.382-11.981-11.382,0-6.1,4.684-11.759,12.7-11.759a18.13,18.13,0,0,1,4.81.66A12.268,12.268,0,0,1,81.12,16.46l-2.611,2.485-1.1.25.786-1.259a8.99,8.99,0,0,0-6.729-2.954c-4.968,0-8.711,3.775-8.711,9.277,0,5.91,4.277,11.476,11.131,11.476a9.366,9.366,0,0,0,3.994-.786V29.888l-4.747.25,2.514-1.352h6.667l-.817.785a.736.736,0,0,0-.315.5c-.033.283-.062,1.2-.062,1.511v3.837Z" transform="translate(-59.454 -13.149)" fill="#7f7f7f"/>
        <path id="Контур_7148" data-name="Контур 7148" d="M145.463,34.441c-1.038-.094-1.257-.282-1.257-1.511v-17.8l.017-.2c.127-1.1.441-1.288,1.417-1.855h-4.5l-2.359,1.132h2.4v.014l0-.012V33.621c0,.627-.124.723-.847,1.666H145.9l1.164-.691c-.537-.061-1.072-.091-1.605-.155Zm12.8.29c-.342.189-.686.407-1.029.562a7.257,7.257,0,0,1-3.032.593,6.673,6.673,0,0,1-4.154-1.219,8.082,8.082,0,0,1-3.183-6.591,7.078,7.078,0,0,1,7.152-7.212,6.072,6.072,0,0,1,3.217.875,5.16,5.16,0,0,1,2.183,3.09L152.076,27.8l-2.405.188c.779,3.967,3.465,6.275,6.433,6.275a8.075,8.075,0,0,0,3.811-1.092l-1.656,1.563Zm-2.934-9.308c.592-.218.9-.405.9-.842a3.1,3.1,0,0,0-3.093-2.686c-1.25,0-3.592.969-3.592,4.341,0,.531.062,1.092.094,1.656Zm5.947-4.345v2.06h-.25v-2.06h-.683v-.213h1.613v.213Zm2.81,2.06v-2.08h-.012l-.635,2.08h-.2l-.64-2.08h-.008v2.08h-.228V20.865h.39l.581,1.838h.007l.572-1.838h.4v2.274Z" transform="translate(-67.16 -13.073)" fill="#7f7f7f"/>
      </g>
    </g>
    <g id="new-youtube-logo-logo-svgrepo-com" transform="translate(1230.7 1693.551)">
      <path id="Контур_7149" data-name="Контур 7149" d="M27.105,35.91l-10.658-.2c-3.451-.068-6.91.068-10.293-.636C1.007,34.028.643,28.872.261,24.548a73.872,73.872,0,0,1,.67-18.3A6.257,6.257,0,0,1,7.1.629,340.759,340.759,0,0,1,41.672.3,24.932,24.932,0,0,1,45.3.731c5.9,1.034,6.045,6.876,6.427,11.794a66.857,66.857,0,0,1-.509,14.9c-.585,4.087-1.7,7.512-6.427,7.843-5.918.432-11.7.78-17.636.67C27.156,35.91,27.122,35.91,27.105,35.91ZM20.839,25.566c4.46-2.561,8.835-5.079,13.269-7.622-4.468-2.561-8.835-5.079-13.269-7.622Z" transform="translate(0.02 -0.021)" fill="red"/>
      <g id="Сгруппировать_7075" data-name="Сгруппировать 7075" transform="translate(57.158 1.245)">
        <path id="Контур_7150" data-name="Контур 7150" d="M754.454,44.7c-.2.831-.382,1.484-.56,2.179h-4.172V14.7h4.867V26.57c.254-.322.382-.458.492-.6a5.284,5.284,0,0,1,3.3-2.179,3.9,3.9,0,0,1,4.774,2.671,14.59,14.59,0,0,1,.746,4.121c.068,3.553.017,7.1-.11,10.649a9.938,9.938,0,0,1-.8,3.213,4.64,4.64,0,0,1-8.038.958C754.819,45.224,754.691,45.029,754.454,44.7Zm.237-8.852v5.884a1.869,1.869,0,0,0,3.553.746,3.07,3.07,0,0,0,.331-1.128c.093-3.6.178-7.19.2-10.794a6.934,6.934,0,0,0-.365-2.018,1.516,1.516,0,0,0-2.467-.839,2.629,2.629,0,0,0-1.255,2.264Zm-13.227-11.6h5.1V46.894h-3.977c-.144-.856-.288-1.738-.458-2.773-.271.4-.432.653-.6.907a5.151,5.151,0,0,1-5.41,2.213c-1.891-.305-3.027-1.764-3.281-4.155a20.167,20.167,0,0,1-.11-2.145c-.017-5.3,0-10.615,0-15.915v-.8h5.155v.924c0,5.121-.017,10.234.017,15.355a13.026,13.026,0,0,0,.2,2.213,1.177,1.177,0,0,0,1.416.967,2.082,2.082,0,0,0,1.992-2.137v-16.3a7.643,7.643,0,0,1-.042-1Zm-35.085-.017H711.5v.958c0,5.1-.017,10.183.017,15.262a10.6,10.6,0,0,0,.22,2.2,1.183,1.183,0,0,0,1.526,1,2.047,2.047,0,0,0,1.874-2.145V24.264h5.1v22.63h-3.96c-.144-.839-.288-1.7-.475-2.8-.254.382-.4.6-.543.831a5.171,5.171,0,0,1-5.443,2.306c-1.815-.271-2.925-1.611-3.264-3.807a15.2,15.2,0,0,1-.161-2.052c-.017-5.5-.017-11.031-.017-16.534Zm-2.628,12.091c-.017.763-.068,1.526-.11,2.289-.2,2.289-.288,5.537-2.137,7.207A6.448,6.448,0,0,1,697.29,47.3a12.99,12.99,0,0,1-2.069-.076c-3.247-.492-4.757-1.925-5.3-5.494a38.219,38.219,0,0,1,.068-12.43c.763-4.265,3.392-5.774,7.478-5.494,3.815.271,5.52,2.773,5.969,6.334A42.95,42.95,0,0,1,703.751,36.321Zm-5.189-.78c0-1.45.034-2.908-.017-4.358a14.945,14.945,0,0,0-.322-2.518,1.546,1.546,0,0,0-1.577-1.4,1.635,1.635,0,0,0-1.543,1.365,3.8,3.8,0,0,0-.2,1c0,2.272-.017,4.553-.034,6.825-.017,2.12-.288,4.341.381,6.368a1.39,1.39,0,0,0,1.416.958,1.368,1.368,0,0,0,1.357-.924,3.811,3.811,0,0,0,.365-1.45C698.451,39.458,698.561,37.5,698.561,35.541Zm-16.118-4.265c.449-2.2.873-4.341,1.34-6.495.585-2.739,1.238-5.477,1.815-8.224.144-.67.415-.831,1.051-.814,1.365.051,2.756.017,4.214.017-.475,1.747-.941,3.408-1.4,5.045q-2.175,7.707-4.333,15.448a4.763,4.763,0,0,0-.161,1.255c-.017,2.815,0,5.621,0,8.436v.916h-4.977c-.017-.254-.051-.509-.051-.763,0-1.594-.127-3.2.017-4.774.365-3.79-.839-7.275-1.815-10.8-1.289-4.663-2.595-9.344-3.883-14.007-.068-.22-.093-.458-.161-.729h5.079C680.247,20.932,681.324,26.079,682.443,31.276Zm97.379,5.91h-8.581c.093,1.721.127,3.358.305,4.977a1.593,1.593,0,0,0,1.721,1.619,1.718,1.718,0,0,0,1.848-1.611,9.583,9.583,0,0,0,.161-1.1c.034-.331.051-.687.076-1.162,1.45.076,2.866.161,4.265.22a5.474,5.474,0,0,1-3.12,6.478,8.917,8.917,0,0,1-5.918.178,4.355,4.355,0,0,1-3.052-2.8,16.434,16.434,0,0,1-.984-4.138,46.351,46.351,0,0,1,.178-10.4,11.73,11.73,0,0,1,.432-1.687,5.174,5.174,0,0,1,4.663-3.96,14.974,14.974,0,0,1,3.943.144c2.086.365,3.2,1.865,3.68,3.832a14.463,14.463,0,0,1,.415,2.815C779.865,32.76,779.823,34.905,779.823,37.186Zm-4.875-2.976c0-1.7.017-3.307-.017-4.918a3.256,3.256,0,0,0-.288-1.145,1.524,1.524,0,0,0-1.611-.907,1.289,1.289,0,0,0-1.357,1.017,21.323,21.323,0,0,0-.348,5.969C772.624,34.21,773.8,34.21,774.947,34.21Z" transform="translate(-674.1 -14.7)" fill="#474747"/>
        <path id="Контур_7151" data-name="Контур 7151" d="M1210.145,32.087H1205.1V28h15.058v4.061h-5.011V59.033h-4.994Z" transform="translate(-1160.078 -26.872)" fill="#474747"/>
      </g>
    </g>
  </g>
</svg>
