<svg xmlns="http://www.w3.org/2000/svg" xmlns:xlink="http://www.w3.org/1999/xlink" width="175.085" height="222.528" viewBox="0 0 175.085 222.528">
  <defs>
    <linearGradient id="linear-gradient" x1="0.5" x2="0.5" y2="1.363" gradientUnits="objectBoundingBox">
      <stop offset="0" stop-color="#4bb665"/>
      <stop offset="1" stop-color="#41aad2"/>
    </linearGradient>
  </defs>
  <g id="Сгруппировать_7115" data-name="Сгруппировать 7115" transform="translate(-1035.381 -421.113)">
    <path id="Контур_7877" data-name="Контур 7877" d="M968.612,509.113a20.548,20.548,0,0,0,0,41.1h3.064a15.047,15.047,0,0,1,15.031,15.029v67.135a20.563,20.563,0,0,0,41.046,1.793,4.706,4.706,0,1,0-5.512-.189,15.052,15.052,0,0,1-30.016-1.6V565.238a20.573,20.573,0,0,0-20.549-20.547h-3.064a15.031,15.031,0,1,1,0-30.062h77.237a15.031,15.031,0,1,1,0,30.062h-2.975a20.571,20.571,0,0,0-20.547,20.547v37.1l.013,4.577a5.933,5.933,0,1,1-11.866,0V560.03l.067-12.7a20.573,20.573,0,0,0-20.549-20.547H978.325a4.688,4.688,0,1,0,0,5.516h11.667a15.046,15.046,0,0,1,15.033,15.016l-.068,12.7v46.9a11.45,11.45,0,1,0,22.9-.007l-.013-41.669a15.047,15.047,0,0,1,15.031-15.029h2.975a20.548,20.548,0,0,0,0-41.1Z" transform="translate(115.693 -88)" fill-rule="evenodd" fill="url(#linear-gradient)"/>
    <path id="Контур_7878" data-name="Контур 7878" d="M1006.308,541.878V537.6h24.07v4.277H1020.6v39.587h-4.46V541.878Zm62.068,7.148v32.439h-4.092v-5.559q-5.318,6.415-13.012,6.414a15.809,15.809,0,0,1-11.914-4.979,16.963,16.963,0,0,1-4.766-12.188,16.571,16.571,0,0,1,4.827-12.066,16.1,16.1,0,0,1,11.973-4.918q7.76,0,12.892,6.781v-5.925Zm-16.646,3.177a11.89,11.89,0,0,0-11.087,6.6,12.939,12.939,0,0,0,0,13.073,12.769,12.769,0,0,0,4.744,4.857,12.428,12.428,0,0,0,6.344,1.741,11.862,11.862,0,0,0,11.088-6.414,13.393,13.393,0,0,0,1.709-6.659,13.126,13.126,0,0,0-3.594-9.439,12.2,12.2,0,0,0-9.2-3.756Zm25.382-15.7h4.155v44.962h-4.155V536.5Zm40.137,34.211,3.545,1.832a16.811,16.811,0,0,1-9.1,8.552,17.415,17.415,0,0,1-6.415,1.223,16.308,16.308,0,0,1-12.127-4.8,16.625,16.625,0,0,1-4.734-12.188,17.334,17.334,0,0,1,3.788-11,15.474,15.474,0,0,1,12.829-6.172,16,16,0,0,1,13.257,6.292,17.44,17.44,0,0,1,3.6,11.119h-29.2a13.039,13.039,0,0,0,3.421,9.163,11.4,11.4,0,0,0,8.8,3.727,12.422,12.422,0,0,0,8.8-3.116,23.828,23.828,0,0,0,3.542-4.642Zm0-8.737a11.759,11.759,0,0,0-6.476-8.491,12.765,12.765,0,0,0-5.681-1.284q-9.041,0-11.973,9.774Zm12.4-12.951h4.275v5.8q4.935-6.657,12.126-6.659,7.622,0,10.6,6.842,1.342,3.056,1.343,9.774v16.678h-4.155V566.009a38.717,38.717,0,0,0-.489-7.515q-1.464-6.476-8.215-6.475a10.154,10.154,0,0,0-6.772,2.475,12.7,12.7,0,0,0-4.012,6.262,14.7,14.7,0,0,0-.428,3.36v17.348h-4.275V549.026Zm40.931-12.1h4.275v12.1h6.537v3.543h-6.537v28.9h-4.275v-28.9h-5.744v-3.543h5.744Z" transform="translate(29.073 44.07)" fill="#111" fill-rule="evenodd"/>
    <path id="Контур_7879" data-name="Контур 7879" d="M1011.707,565.562h1.1v1.491a3.438,3.438,0,0,1,2.949-1.717,2.608,2.608,0,0,1,2.074.874,4.048,4.048,0,0,1,.648,1.2,3.842,3.842,0,0,1,2.236-1.945,3.011,3.011,0,0,1,.924-.13,2.581,2.581,0,0,1,2.608,1.717,6.839,6.839,0,0,1,.324,2.415v4.7h-1.133v-4.7a9.165,9.165,0,0,0-.081-1.508,1.873,1.873,0,0,0-.665-1.143,1.956,1.956,0,0,0-1.263-.413,2.427,2.427,0,0,0-1.482.487,2.829,2.829,0,0,0-.965,1.263,7.8,7.8,0,0,0-.324,2.641v3.371h-1.086v-4.408a9.762,9.762,0,0,0-.1-1.635,1.827,1.827,0,0,0-1.928-1.719,2.47,2.47,0,0,0-2.414,1.719,6.6,6.6,0,0,0-.324,2.4v3.645h-1.1v-8.606Zm23.789,0v8.606h-1.086v-1.474a4.326,4.326,0,0,1-3.453,1.7,4.19,4.19,0,0,1-3.16-1.321,4.5,4.5,0,0,1-1.263-3.232,4.395,4.395,0,0,1,1.28-3.2,4.274,4.274,0,0,1,3.177-1.3,4.132,4.132,0,0,1,3.419,1.8v-1.573Zm-4.416.843a3.156,3.156,0,0,0-2.941,1.75,3.429,3.429,0,0,0,0,3.467,3.393,3.393,0,0,0,1.258,1.289,3.308,3.308,0,0,0,1.684.461,3.148,3.148,0,0,0,2.941-1.7,3.565,3.565,0,0,0,.454-1.767,3.483,3.483,0,0,0-.954-2.5,3.239,3.239,0,0,0-2.441-1Zm6.9-.843h1.133V567.1a3.893,3.893,0,0,1,3.218-1.765,2.829,2.829,0,0,1,2.812,1.815,6.914,6.914,0,0,1,.355,2.593v4.423h-1.1v-4.1a10.29,10.29,0,0,0-.13-1.993,2.014,2.014,0,0,0-2.18-1.717,2.687,2.687,0,0,0-1.795.657,3.364,3.364,0,0,0-1.065,1.66,3.937,3.937,0,0,0-.113.891v4.6h-1.133v-8.606Zm18.473,0v8.606h-1.086v-1.474a4.325,4.325,0,0,1-3.451,1.7,4.19,4.19,0,0,1-3.162-1.321,4.5,4.5,0,0,1-1.263-3.232,4.4,4.4,0,0,1,1.28-3.2,4.278,4.278,0,0,1,3.177-1.3,4.133,4.133,0,0,1,3.419,1.8v-1.573Zm-4.416.843a3.156,3.156,0,0,0-2.941,1.75,3.429,3.429,0,0,0,0,3.467,3.386,3.386,0,0,0,1.259,1.289,3.3,3.3,0,0,0,1.682.461,3.148,3.148,0,0,0,2.941-1.7,3.565,3.565,0,0,0,.454-1.767,3.482,3.482,0,0,0-.954-2.5,3.239,3.239,0,0,0-2.441-1Zm14.318-.843h1.134v6.855a8.035,8.035,0,0,1-.324,2.658q-.922,2.465-4.1,2.464a4.742,4.742,0,0,1-3.419-1.15,4.859,4.859,0,0,1-1.023-1.541h1.2a3.328,3.328,0,0,0,3.188,1.685,4.261,4.261,0,0,0,1.728-.339,2.554,2.554,0,0,0,1.295-1.167,4.891,4.891,0,0,0,.324-2.058v-.439a4.225,4.225,0,0,1-3.443,1.637,4.432,4.432,0,0,1-2.21-.591,4.216,4.216,0,0,1-1.615-1.589,4.315,4.315,0,0,1-.576-2.195,4.481,4.481,0,0,1,4.432-4.457,4.454,4.454,0,0,1,3.412,1.717v-1.491Zm-3.25.843a3.237,3.237,0,0,0-2.973,1.7,3.391,3.391,0,0,0-.485,1.75,3.1,3.1,0,0,0,.961,2.375,3.43,3.43,0,0,0,2.434.9,3.356,3.356,0,0,0,2.449-.908,3.246,3.246,0,0,0,.93-2.43,3.146,3.146,0,0,0-1.634-2.951,3.374,3.374,0,0,0-1.682-.437Zm13.977,4.91.941.487a4.466,4.466,0,0,1-2.415,2.269,4.634,4.634,0,0,1-1.7.322,4.332,4.332,0,0,1-3.217-1.271,4.412,4.412,0,0,1-1.256-3.234,4.6,4.6,0,0,1,1-2.917,4.106,4.106,0,0,1,3.4-1.636,4.241,4.241,0,0,1,3.517,1.669,4.622,4.622,0,0,1,.956,2.949h-7.746a3.467,3.467,0,0,0,.907,2.432,3.031,3.031,0,0,0,2.334.987,3.291,3.291,0,0,0,2.333-.826,6.268,6.268,0,0,0,.939-1.232Zm0-2.317a3.12,3.12,0,0,0-1.717-2.252,3.406,3.406,0,0,0-1.508-.341,3.144,3.144,0,0,0-3.175,2.593Zm3.29-3.436h1.1v1.491a3.439,3.439,0,0,1,2.951-1.717,2.6,2.6,0,0,1,2.073.874,4.011,4.011,0,0,1,.65,1.2,3.832,3.832,0,0,1,2.236-1.945,3.006,3.006,0,0,1,.922-.13,2.583,2.583,0,0,1,2.61,1.717,6.838,6.838,0,0,1,.324,2.415v4.7H1092.1v-4.7a9.2,9.2,0,0,0-.081-1.508,1.882,1.882,0,0,0-.665-1.143,1.96,1.96,0,0,0-1.263-.413,2.429,2.429,0,0,0-1.484.487,2.84,2.84,0,0,0-.963,1.263,7.811,7.811,0,0,0-.324,2.641v3.371h-1.087v-4.408a9.815,9.815,0,0,0-.1-1.635,1.83,1.83,0,0,0-1.928-1.719,2.472,2.472,0,0,0-2.415,1.719,6.635,6.635,0,0,0-.324,2.4v3.645h-1.1v-8.606Zm22.446,5.753.939.487a4.466,4.466,0,0,1-2.416,2.269,4.633,4.633,0,0,1-1.7.322,4.331,4.331,0,0,1-3.217-1.271,4.412,4.412,0,0,1-1.256-3.234,4.6,4.6,0,0,1,1.006-2.917,4.1,4.1,0,0,1,3.4-1.636,4.24,4.24,0,0,1,3.516,1.669,4.623,4.623,0,0,1,.958,2.949H1096.3a3.465,3.465,0,0,0,.906,2.432,3.031,3.031,0,0,0,2.334.987,3.291,3.291,0,0,0,2.334-.826,6.339,6.339,0,0,0,.941-1.232Zm0-2.317a3.126,3.126,0,0,0-1.719-2.252,3.4,3.4,0,0,0-1.506-.341,3.146,3.146,0,0,0-3.177,2.593Zm3.29-3.436h1.134V567.1a3.892,3.892,0,0,1,3.217-1.765,2.828,2.828,0,0,1,2.812,1.815,6.913,6.913,0,0,1,.356,2.593v4.423h-1.1v-4.1a10.264,10.264,0,0,0-.13-1.993,2.013,2.013,0,0,0-2.178-1.717,2.687,2.687,0,0,0-1.8.657,3.361,3.361,0,0,0-1.065,1.66,3.923,3.923,0,0,0-.113.891v4.6H1106.1v-8.606Zm10.858-3.208h1.134v3.208h1.734v.941h-1.734v7.665h-1.134V566.5h-1.524v-.941h1.524Z" transform="translate(33.675 66.102)" fill="#111" fill-rule="evenodd"/>
  </g>
</svg>
