<svg xmlns="http://www.w3.org/2000/svg" xmlns:xlink="http://www.w3.org/1999/xlink" width="19" height="19" viewBox="0 0 19 19">
  <defs>
    <linearGradient id="linear-gradient" x1="0.5" x2="0.5" y2="1" gradientUnits="objectBoundingBox">
      <stop offset="0" stop-color="#4bb665"/>
      <stop offset="1" stop-color="#41aad2"/>
    </linearGradient>
  </defs>
  <g id="Сгруппировать_7112" data-name="Сгруппировать 7112" transform="translate(-726.5 -713)">
    <g id="Сгруппировать_7748" data-name="Сгруппировать 7748">
      <g id="Сгруппировать_7747" data-name="Сгруппировать 7747">
        <g id="Rectangle_43" data-name="Rectangle 43" transform="translate(729.5 713)" fill="none" stroke="#4bb666" stroke-width="1">
          <path d="M0,0H11a5,5,0,0,1,5,5V16a0,0,0,0,1,0,0H5a5,5,0,0,1-5-5V0A0,0,0,0,1,0,0Z" stroke="none"/>
          <path d="M1,.5H11A4.5,4.5,0,0,1,15.5,5V15a.5.5,0,0,1-.5.5H5A4.5,4.5,0,0,1,.5,11V1A.5.5,0,0,1,1,.5Z" fill="none"/>
        </g>
        <path id="Rectangle_42" data-name="Rectangle 42" d="M0,0H11a5,5,0,0,1,5,5V16a0,0,0,0,1,0,0H5a5,5,0,0,1-5-5V0A0,0,0,0,1,0,0Z" transform="translate(726.5 716)" fill="url(#linear-gradient)"/>
      </g>
    </g>
  </g>
</svg>
