<svg xmlns="http://www.w3.org/2000/svg" width="57" height="57" viewBox="0 0 57 57">
  <g id="Сгруппировать_7152" data-name="Сгруппировать 7152" transform="translate(-817.5 -2408)">
    <rect id="Rectangle_61" data-name="Rectangle 61" width="57" height="57" rx="10" transform="translate(817.5 2408)" fill="#ff8100" opacity="0.2"/>
    <g id="education_outlined" transform="translate(831 2421.5)">
      <path id="Icon_color" data-name="Icon color" d="M26.875,26.25h-.938a.626.626,0,0,1-.625-.626V14.5l-8.925,6.425a1.849,1.849,0,0,1-1.049.325h-.675a1.855,1.855,0,0,1-1.05-.325L2.775,13.112A.609.609,0,0,1,2.5,12.6v-.2a.612.612,0,0,1,.274-.513L13.613,4.075a1.855,1.855,0,0,1,1.05-.325h.675a1.849,1.849,0,0,1,1.049.325l10.838,7.812a.615.615,0,0,1,.275.513V25.625A.626.626,0,0,1,26.875,26.25Zm-11.963-20h0L6.25,12.5l8.626,6.25h.262L23.75,12.5,15.175,6.25h-.263Zm.088,20c-4.136,0-7.5-2.243-7.5-5V19.212L12.325,22.7a4.151,4.151,0,0,0,2.338.738h.675a4.051,4.051,0,0,0,2.287-.713L22.5,19.212V21.25C22.5,24.007,19.136,26.25,15,26.25Z" fill="#ff8100"/>
    </g>
  </g>
</svg>
