<svg xmlns="http://www.w3.org/2000/svg" width="57" height="57" viewBox="0 0 57 57">
  <g id="Сгруппировать_7153" data-name="Сгруппировать 7153" transform="translate(-517.5 -2718)">
    <rect id="Rectangle_61" data-name="Rectangle 61" width="57" height="57" rx="10" transform="translate(517.5 2718)" fill="#2589fe" opacity="0.2"/>
    <g id="bitcoin_outlined" transform="translate(531 2731.5)">
      <path id="Icon_color" data-name="Icon color" d="M15,27.5A12.5,12.5,0,0,1,6.161,6.161,12.5,12.5,0,1,1,23.839,23.839,12.418,12.418,0,0,1,15,27.5ZM15,5A10,10,0,1,0,25,15,10.011,10.011,0,0,0,15,5Zm.625,17.5h-1.25a.625.625,0,0,1-.625-.625V20H10.625A.626.626,0,0,1,10,19.375v-.938a.626.626,0,0,1,.625-.625h.312a.313.313,0,0,0,.312-.313v-5a.313.313,0,0,0-.312-.312h-.312A.626.626,0,0,1,10,11.562v-.937A.626.626,0,0,1,10.625,10H13.75V8.125a.626.626,0,0,1,.625-.625h1.25a.626.626,0,0,1,.625.625V10h.625a2.5,2.5,0,0,1,2.5,2.5v1.1a2.5,2.5,0,0,1-.2.963A2.5,2.5,0,0,1,20,16.4v1.1A2.5,2.5,0,0,1,17.5,20H16.25v1.876A.626.626,0,0,1,15.625,22.5Zm-2.187-6.4v1.713h4.375V16.1Zm0-3.912V13.9h3.749V12.188Z" fill="#2589fe"/>
    </g>
  </g>
</svg>
