<svg xmlns="http://www.w3.org/2000/svg" width="57" height="57" viewBox="0 0 57 57">
  <g id="Сгруппировать_7154" data-name="Сгруппировать 7154" transform="translate(-817.5 -2718)">
    <rect id="Rectangle_65" data-name="Rectangle 65" width="57" height="57" rx="10" transform="translate(817.5 2718)" fill="#1db954" opacity="0.2"/>
    <g id="leaf_diagonal" transform="translate(831 2731.5)">
      <path id="Icon_color" data-name="Icon color" d="M5.256,26.248a.621.621,0,0,1-.444-.185l-.875-.875a.626.626,0,0,1,0-.887L9.263,19a8.751,8.751,0,0,1,.812-11.5C13.15,4.4,18.053,3.75,21.625,3.75h.053c.92,0,1.852.046,2.772.137a1.259,1.259,0,0,1,.762.35l.537.55a1.255,1.255,0,0,1,.363.763c.286,2.958.507,10.281-3.613,14.375a8.75,8.75,0,0,1-11.462.813L5.7,26.062A.626.626,0,0,1,5.256,26.248ZM15.994,12.5a.624.624,0,0,1,.444.184l.875.875a.625.625,0,0,1,0,.888l-4.5,4.5a6.251,6.251,0,0,0,7.938-.8c3.164-3.139,3.1-9.315,2.925-11.825a18.576,18.576,0,0,0-2.05-.076c-2.535,0-7.177.39-9.775,3a6.253,6.253,0,0,0-.8,7.937l4.5-4.5A.629.629,0,0,1,15.994,12.5Z" fill="#1db954"/>
    </g>
  </g>
</svg>
