<svg xmlns="http://www.w3.org/2000/svg" width="57" height="57" viewBox="0 0 57 57">
  <g id="Сгруппировать_7155" data-name="Сгруппировать 7155" transform="translate(-1117.5 -2718)">
    <rect id="Rectangle_61" data-name="Rectangle 61" width="57" height="57" rx="10" transform="translate(1117.5 2718)" fill="#e23f5a" opacity="0.2"/>
    <g id="factory" transform="translate(1131 2731.5)">
      <path id="Icon_color" data-name="Icon color" d="M28.125,27.5H1.875a.626.626,0,0,1-.625-.625v-1.25A.625.625,0,0,1,1.875,25H3.75V15.888a.624.624,0,0,1,.275-.526l5.913-3.9a1.245,1.245,0,0,1,.688-.212.625.625,0,0,1,.625.625v2.838l4.937-3.25a1.245,1.245,0,0,1,.688-.212.625.625,0,0,1,.625.625v2.838l1.6-.962.312-10a1.252,1.252,0,0,1,1.25-1.25h3.712a1.252,1.252,0,0,1,1.25,1.25L26.25,25h1.875a.625.625,0,0,1,.625.625v1.25A.626.626,0,0,1,28.125,27.5Zm-7.5-5a.626.626,0,0,0-.625.625v1.25a.626.626,0,0,0,.625.625h1.25a.626.626,0,0,0,.625-.625v-1.25a.625.625,0,0,0-.625-.625Zm-6.25,0a.625.625,0,0,0-.625.625v1.25a.626.626,0,0,0,.625.625h1.25a.626.626,0,0,0,.626-.625v-1.25a.626.626,0,0,0-.626-.625Zm-6.25,0a.626.626,0,0,0-.626.625v1.25A.626.626,0,0,0,8.125,25h1.25A.626.626,0,0,0,10,24.375v-1.25a.625.625,0,0,0-.625-.625Zm12.5-5a.626.626,0,0,0-.625.626v1.25a.626.626,0,0,0,.625.625h1.25a.625.625,0,0,0,.625-.625v-1.25a.626.626,0,0,0-.625-.626Zm-6.25,0a.626.626,0,0,0-.625.626v1.25a.625.625,0,0,0,.625.625h1.25a.626.626,0,0,0,.626-.625v-1.25a.626.626,0,0,0-.626-.626Zm-6.25,0a.626.626,0,0,0-.626.626v1.25A.626.626,0,0,0,8.125,20h1.25A.625.625,0,0,0,10,19.375v-1.25a.626.626,0,0,0-.625-.626Z" fill="#e23f5a"/>
    </g>
  </g>
</svg>
