<svg xmlns="http://www.w3.org/2000/svg" width="25" height="25" viewBox="0 0 25 25">
  <g id="shopping_cart_outlined" transform="translate(-2.5 -2.5)">
    <path id="Icon_color" data-name="Icon color" d="M22.5,27.5A2.5,2.5,0,1,1,25,25,2.5,2.5,0,0,1,22.5,27.5ZM10,27.5A2.5,2.5,0,1,1,12.5,25,2.5,2.5,0,0,1,10,27.5ZM8.727,21.25a.953.953,0,0,1-.814-.463l-.275-.475a.966.966,0,0,1,0-.887L9.962,14.8a2.766,2.766,0,0,1-.337-.437L4.275,5H3.125A.626.626,0,0,1,2.5,4.375V3.125A.625.625,0,0,1,3.125,2.5h1.16A2.509,2.509,0,0,1,6.45,3.75L7.15,5H26.875a.626.626,0,0,1,.625.625V6.25a5.963,5.963,0,0,1-.813,2.95L23.75,14.362a3.688,3.688,0,0,1-3.137,1.888H12.825a3.48,3.48,0,0,1-.8-.112l-1.25,2.612h13.6a.626.626,0,0,1,.625.625v1.25a.626.626,0,0,1-.625.625H8.727ZM8.588,7.5h0L11.8,13.125a1.256,1.256,0,0,0,1.076.626h7.787a1.254,1.254,0,0,0,.938-.626l2.95-5.162a3.059,3.059,0,0,0,.123-.3c.021-.056.042-.111.064-.165H8.588Z" fill="#4fd7e5"/>
  </g>
</svg>
