<svg xmlns="http://www.w3.org/2000/svg" xmlns:xlink="http://www.w3.org/1999/xlink" width="93" height="93" viewBox="0 0 93 93">
  <defs>
    <clipPath id="clip-path">
      <path id="path4965" d="M0-682.665H50.026v50.026H0Z" transform="translate(0 682.665)" fill="#fff"/>
    </clipPath>
  </defs>
  <g id="Сгруппировать_7146" data-name="Сгруппировать 7146" transform="translate(-130 -1325)">
    <circle id="Ellipse_5" data-name="Ellipse 5" cx="46.5" cy="46.5" r="46.5" transform="translate(130 1325)" fill="#662d91"/>
    <g id="g4959" transform="translate(152.32 1346.08)">
      <g id="g4961" transform="translate(0)">
        <g id="g4963" clip-path="url(#clip-path)">
          <g id="g4969" transform="translate(-0.164 5.926)">
            <path id="path4971" d="M-114.547-438.694h-9.05a.9.9,0,0,1-.9-.9v-34.752a.9.9,0,0,1,.9-.9h10.646a.9.9,0,0,1,.9.9.9.9,0,0,1-.9.9h-9.75v32.959h8.153a.9.9,0,0,1,.9.9A.9.9,0,0,1-114.547-438.694Z" transform="translate(124.493 475.239)" fill="#fff"/>
          </g>
          <g id="g4973" transform="translate(12.079 5.926)">
            <path id="path4975" d="M-314.425,35.545h-36.317a.9.9,0,0,1-.9-.9.9.9,0,0,1,.9-.9h35.421V.793h-9.726a.9.9,0,0,1-.9-.9.9.9,0,0,1,.9-.9h10.623a.9.9,0,0,1,.9.9V34.649A.9.9,0,0,1-314.425,35.545Z" transform="translate(351.639 1)" fill="#fff"/>
          </g>
        </g>
      </g>
      <g id="g4977" transform="translate(37.773 8.961)">
        <path id="path4979" d="M7.484,12.834a.9.9,0,0,1-.9-.9V.793H-.1A.9.9,0,0,1-1-.1.9.9,0,0,1-.1-1H7.484a.9.9,0,0,1,.9.9V11.938A.9.9,0,0,1,7.484,12.834Z" transform="translate(1 1)" fill="#fff"/>
      </g>
      <g id="g4981" transform="translate(2.871 8.961)">
        <path id="path4983" d="M-537.451-181.452h-42.491a.9.9,0,0,1-.9-.9V-208a.9.9,0,0,1,.9-.9h7.611a.9.9,0,0,1,.9.9.9.9,0,0,1-.9.9h-6.715v23.855h40.7v-9.517a.9.9,0,0,1,.9-.9.9.9,0,0,1,.9.9v10.414A.9.9,0,0,1-537.451-181.452Z" transform="translate(580.838 208.893)" fill="#fff"/>
      </g>
      <g id="g4985" transform="translate(22.599 37.644)">
        <path id="path4987" d="M2.931.793H-.1A.9.9,0,0,1-1-.1.9.9,0,0,1-.1-1H2.931a.9.9,0,0,1,.9.9A.9.9,0,0,1,2.931.793Z" transform="translate(1 1)" fill="#fff"/>
      </g>
      <path id="path4989" d="M305.883-109.86h-6.07a.9.9,0,0,1-.9-.9v-4.663a.9.9,0,0,1,.9-.9h6.07a.9.9,0,0,1,.9.9v4.663A.9.9,0,0,1,305.883-109.86Zm-5.173-1.793h4.277v-2.87H300.71Z" transform="translate(-277.835 156.994)" fill="#fff"/>
      <g id="g4991" transform="translate(0)">
        <g id="g4993" clip-path="url(#clip-path)">
          <g id="g4999" transform="translate(15.011 45.341)">
            <path id="path5001" d="M-230.39-37.588H-248.6a.9.9,0,0,1-.9-.9,3.936,3.936,0,0,1,3.931-3.931h12.14a3.936,3.936,0,0,1,3.931,3.931A.9.9,0,0,1-230.39-37.588Zm-17.116-1.793h16.023a2.141,2.141,0,0,0-1.941-1.242h-12.14A2.141,2.141,0,0,0-247.507-39.381Z" transform="translate(249.497 42.416)" fill="#fff"/>
          </g>
          <g id="g5003" transform="translate(5.907 8.961)">
            <path id="path5005" d="M-57.968-37.338h-4.576a.9.9,0,0,1-.9-.9V-41.25a.9.9,0,0,1,.9-.9h4.576a.9.9,0,0,1,.9.9.9.9,0,0,1-.9.9h-3.679v1.222h3.679a.9.9,0,0,1,.9.9A.9.9,0,0,1-57.968-37.338Z" transform="translate(63.44 42.147)" fill="#fff"/>
          </g>
          <g id="g5007" transform="translate(37.774 8.961)">
            <path id="path5009" d="M7.484,3.808H-.1a.9.9,0,0,1-.9-.9.9.9,0,0,1,.9-.9H6.588V.793H-.1A.9.9,0,0,1-1-.1.9.9,0,0,1-.1-1H7.484a.9.9,0,0,1,.9.9V2.912A.9.9,0,0,1,7.484,3.808Z" transform="translate(1 1)" fill="#fff"/>
          </g>
          <path id="path5011" d="M51.319-549.143h3.035a.9.9,0,0,1,.9.9v3.015a.9.9,0,0,1-.9.9H51.319a.9.9,0,0,1-.9-.9v-3.015A.9.9,0,0,1,51.319-549.143Zm2.138,1.793H52.215v1.222h1.242Z" transform="translate(-47.551 558.104)" fill="#fff"/>
          <g id="g5013" transform="translate(10.482 -0.164)">
            <path id="path5015" d="M-280.4,35.566h-27.291a.9.9,0,0,1-.9-.9V-.1a.9.9,0,0,1,.9-.9h19.346a.9.9,0,0,1,.9.9.9.9,0,0,1-.9.9h-18.449v32.98h25.5V.793h-3.855a.9.9,0,0,1-.9-.9.9.9,0,0,1,.9-.9h4.751a.9.9,0,0,1,.9.9V34.669A.9.9,0,0,1-280.4,35.566Z" transform="translate(308.586 1)" fill="#fff"/>
          </g>
          <g id="g5017" transform="translate(18.046 21.081)">
            <path id="path5019" d="M12.036.793H-.1A.9.9,0,0,1-1-.1.9.9,0,0,1-.1-1h12.14a.9.9,0,0,1,.9.9A.9.9,0,0,1,12.036.793Z" transform="translate(1 1)" fill="#fff"/>
          </g>
          <g id="g5021" transform="translate(17.91 27.14)">
            <path id="path5023" d="M2.937.793H-.1A.9.9,0,0,1-1-.1.9.9,0,0,1-.1-1H2.937a.9.9,0,0,1,.9.9A.9.9,0,0,1,2.937.793Z" transform="translate(1 1)" fill="#fff"/>
          </g>
          <g id="g5025" transform="translate(24.116 27.151)">
            <path id="path5027" d="M5.966.793H-.1A.9.9,0,0,1-1-.1.9.9,0,0,1-.1-1h6.07a.9.9,0,0,1,.9.9A.9.9,0,0,1,5.966.793Z" transform="translate(1 1)" fill="#fff"/>
          </g>
          <g id="g5029" transform="translate(17.91 24.105)">
            <path id="path5031" d="M2.937.793H-.1A.9.9,0,0,1-1-.1.9.9,0,0,1-.1-1H2.937a.9.9,0,0,1,.9.9A.9.9,0,0,1,2.937.793Z" transform="translate(1 1)" fill="#fff"/>
          </g>
          <g id="g5033" transform="translate(24.116 24.116)">
            <path id="path5035" d="M5.966.793H-.1A.9.9,0,0,1-1-.1.9.9,0,0,1-.1-1h6.07a.9.9,0,0,1,.9.9A.9.9,0,0,1,5.966.793Z" transform="translate(1 1)" fill="#fff"/>
          </g>
          <g id="g5037" transform="translate(22.585 8.941)">
            <path id="path5039" d="M1.428-21.9a2.431,2.431,0,0,1,2.428,2.428v1.017A2.431,2.431,0,0,1,1.428-16.03,2.431,2.431,0,0,1-1-18.458v-1.017A2.431,2.431,0,0,1,1.428-21.9Zm0,4.08a.636.636,0,0,0,.635-.635v-1.017a.636.636,0,0,0-.635-.635.636.636,0,0,0-.635.635v1.017A.636.636,0,0,0,1.428-17.822Z" transform="translate(1 21.903)" fill="#fff"/>
          </g>
          <g id="g5041" transform="translate(21.081 13.022)">
            <path id="path5043" d="M-76.865-52.481a.9.9,0,0,1-.9-.9v-2.957l-1.422-.359h-1.432l-1.422.359v2.914a.9.9,0,0,1-.9.9.9.9,0,0,1-.9-.9v-3.063a1.621,1.621,0,0,1,1.151-1.536l.052-.015,1.681-.425a.9.9,0,0,1,.219-.027h1.655a.9.9,0,0,1,.22.027l1.681.425.052.015a1.621,1.621,0,0,1,1.151,1.536v3.106A.9.9,0,0,1-76.865-52.481Z" transform="translate(83.832 58.487)" fill="#fff"/>
          </g>
          <g id="g5045" transform="translate(18.046 5.907)">
            <path id="path5047" d="M5.966-83.832a6.974,6.974,0,0,1,6.966,6.966A6.974,6.974,0,0,1,5.966-69.9,6.974,6.974,0,0,1-1-76.865,6.974,6.974,0,0,1,5.966-83.832Zm0,12.14a5.179,5.179,0,0,0,5.173-5.174,5.179,5.179,0,0,0-5.173-5.173A5.179,5.179,0,0,0,.793-76.865,5.179,5.179,0,0,0,5.966-71.692Z" transform="translate(1 83.832)" fill="#fff"/>
          </g>
        </g>
      </g>
    </g>
  </g>
</svg>
