<svg xmlns="http://www.w3.org/2000/svg" xmlns:xlink="http://www.w3.org/1999/xlink" width="92" height="92" viewBox="0 0 92 92">
  <defs>
    <clipPath id="clip-path">
      <path id="path4371" d="M0-682.665H49.231v49.231H0Z" transform="translate(0 682.665)" fill="#fff"/>
    </clipPath>
  </defs>
  <g id="Сгруппировать_7149" data-name="Сгруппировать 7149" transform="translate(-129 -1756)">
    <g id="Group_18" data-name="Group 18" transform="translate(-10.5 51)">
      <circle id="Ellipse_6" data-name="Ellipse 6" cx="46" cy="46" r="46" transform="translate(139.5 1705)" fill="#81d97e"/>
    </g>
    <g id="g4365" transform="translate(150.148 1778.149)">
      <g id="g4367">
        <g id="g4369" clip-path="url(#clip-path)">
          <g id="g4375" transform="translate(13.65 0.387)">
            <path id="path4377" d="M-.09,6.111A.91.91,0,0,1-1,5.2V-.09A.91.91,0,0,1-.09-1a.91.91,0,0,1,.91.91V5.2A.91.91,0,0,1-.09,6.111Z" transform="translate(1 1)" fill="#fff"/>
          </g>
          <g id="g4379" transform="translate(0.196 6.063)">
            <path id="path4381" d="M-439.682.82h-34.166a.91.91,0,0,1-.91-.91.91.91,0,0,1,.91-.91h34.166a.91.91,0,0,1,.91.91A.91.91,0,0,1-439.682.82Z" transform="translate(474.758 1)" fill="#fff"/>
          </g>
          <g id="g4383" transform="translate(37.922 6.063)">
            <path id="path4385" d="M-119.668.82h-9.294a.91.91,0,0,1-.91-.91.91.91,0,0,1,.91-.91h9.294a.91.91,0,0,1,.91.91A.91.91,0,0,1-119.668.82Z" transform="translate(129.872 1)" fill="#fff"/>
          </g>
        </g>
      </g>
      <g id="g4387" transform="translate(4.184 3.033)">
        <path id="path4389" d="M-.08.82H-.09A.91.91,0,0,1-1-.09.91.91,0,0,1-.09-1h.01a.91.91,0,0,1,.91.91A.91.91,0,0,1-.08.82Z" transform="translate(1 1)" fill="#fff"/>
      </g>
      <g id="g4391" transform="translate(6.694 3.033)">
        <path id="path4393" d="M-.08.82H-.09A.91.91,0,0,1-1-.09.91.91,0,0,1-.09-1h.01a.91.91,0,0,1,.91.91A.91.91,0,0,1-.08.82Z" transform="translate(1 1)" fill="#fff"/>
      </g>
      <g id="g4395" transform="translate(9.203 3.033)">
        <path id="path4397" d="M-.08.82H-.09A.91.91,0,0,1-1-.09.91.91,0,0,1-.09-1h.01a.91.91,0,0,1,.91.91A.91.91,0,0,1-.08.82Z" transform="translate(1 1)" fill="#fff"/>
      </g>
      <g id="g4399">
        <g id="g4401" clip-path="url(#clip-path)">
          <g id="g4407" transform="translate(-0.189 0.003)">
            <path id="path4409" d="M-511.933-466.092h-6.092a.91.91,0,0,1-.91-.91.91.91,0,0,1,.91-.91h6.092a.533.533,0,0,0,.532-.532v-33.4a.533.533,0,0,0-.532-.532h-44.9a.533.533,0,0,0-.532.532v33.4a.533.533,0,0,0,.532.532h4.184a.91.91,0,0,1,.91.91.91.91,0,0,1-.91.91h-4.184a2.355,2.355,0,0,1-2.352-2.352v-33.4a2.355,2.355,0,0,1,2.352-2.352h44.9a2.355,2.355,0,0,1,2.352,2.352v33.4A2.355,2.355,0,0,1-511.933-466.092Z" transform="translate(559.189 504.201)" fill="#fff"/>
          </g>
          <g id="g4411" transform="translate(8.998 36.292)">
            <path id="path4413" d="M9.11.82H-.09A.91.91,0,0,1-1-.09.91.91,0,0,1-.09-1h9.2a.91.91,0,0,1,.91.91A.91.91,0,0,1,9.11.82Z" transform="translate(1 1)" fill="#fff"/>
          </g>
          <g id="g4415" transform="translate(41.07 45.793)">
            <path id="path4417" d="M-20.875-19.952a.907.907,0,0,1-.643-.266l-1.615-1.614a.91.91,0,0,1,0-1.287.91.91,0,0,1,1.287,0l1.615,1.614a.91.91,0,0,1,0,1.287A.907.907,0,0,1-20.875-19.952Z" transform="translate(23.4 23.387)" fill="#fff"/>
          </g>
          <g id="g4419" transform="translate(38.642 38.909)">
            <path id="path4421" d="M1.792,2.7a.907.907,0,0,1-.643-.267L-.733.554a.91.91,0,0,1,0-1.287.91.91,0,0,1,1.287,0L2.435,1.148A.91.91,0,0,1,1.792,2.7Z" transform="translate(1 1)" fill="#fff"/>
          </g>
          <g id="g4423" transform="translate(36.414 41.137)">
            <path id="path4425" d="M-24.29-23.379a.907.907,0,0,1-.643-.267l-1.881-1.881a.91.91,0,0,1,0-1.287.91.91,0,0,1,1.287,0l1.881,1.881a.91.91,0,0,1,0,1.287A.907.907,0,0,1-24.29-23.379Z" transform="translate(27.081 27.08)" fill="#fff"/>
          </g>
          <g id="g4427" transform="translate(43.299 43.565)">
            <path id="path4429" d="M-20.862-19.952a.907.907,0,0,1-.643-.267l-1.614-1.614a.91.91,0,0,1,0-1.287.91.91,0,0,1,1.287,0l1.614,1.614a.91.91,0,0,1,0,1.287A.907.907,0,0,1-20.862-19.952Z" transform="translate(23.387 23.387)" fill="#fff"/>
          </g>
          <g id="g4431" transform="translate(37.845 40.408)">
            <path id="path4433" d="M-73.716-36.216a1.738,1.738,0,0,1,1.237.512l1.107,1.107a1.738,1.738,0,0,1,.512,1.237,1.738,1.738,0,0,1-.512,1.237l-3.051,3.051a1.738,1.738,0,0,1-1.237.512,1.738,1.738,0,0,1-1.237-.512L-78-30.179a1.752,1.752,0,0,1,0-2.474l3.051-3.051A1.738,1.738,0,0,1-73.716-36.216Zm1.007,2.856-1.007-1.007-2.951,2.95,1.007,1.007Z" transform="translate(78.515 36.216)" fill="#fff"/>
          </g>
          <g id="g4435" transform="translate(17.492 19.986)">
            <path id="path4437" d="M-309.088-111.509a12.464,12.464,0,0,1-8.871-3.674,12.463,12.463,0,0,1-3.675-8.871,12.463,12.463,0,0,1,3.674-8.871,12.463,12.463,0,0,1,8.871-3.674,12.543,12.543,0,0,1,8.177,3.031,12.551,12.551,0,0,1,4.209,7.514.91.91,0,0,1-.754,1.043.91.91,0,0,1-1.043-.754,10.672,10.672,0,0,0-10.589-9.013,10.738,10.738,0,0,0-10.725,10.725,10.738,10.738,0,0,0,10.725,10.725,10.778,10.778,0,0,0,10.61-9.154.91.91,0,0,1,1.033-.768.91.91,0,0,1,.768,1.033,12.542,12.542,0,0,1-4.174,7.627A12.537,12.537,0,0,1-309.088-111.509Z" transform="translate(321.634 136.6)" fill="#fff"/>
          </g>
          <g id="g4439" transform="translate(20.851 23.415)">
            <path id="path4441" d="M-219.483-114.8a9.127,9.127,0,0,1,9.117,9.117,9.127,9.127,0,0,1-9.117,9.117,9.127,9.127,0,0,1-9.117-9.117,9.057,9.057,0,0,1,2.67-6.447A9.057,9.057,0,0,1-219.483-114.8Zm0,16.414a7.305,7.305,0,0,0,7.3-7.3,7.305,7.305,0,0,0-7.3-7.3,7.249,7.249,0,0,0-5.16,2.137,7.249,7.249,0,0,0-2.137,5.16A7.3,7.3,0,0,0-219.483-98.386Z" transform="translate(228.599 114.8)" fill="#fff"/>
          </g>
          <g id="g4443" transform="translate(3.919 10.27)">
            <path id="path4445" d="M-14.157,8.214a3.094,3.094,0,0,1-3.091-3.091V4.5a.91.91,0,0,1,.91-.91.91.91,0,0,1,.91.91v.618a1.272,1.272,0,0,0,1.271,1.271,1.272,1.272,0,0,0,1.271-1.271V.82h-2.28a.91.91,0,0,1-.91-.91.91.91,0,0,1,.91-.91h3.19a.91.91,0,0,1,.91.91V5.123A3.094,3.094,0,0,1-14.157,8.214Z" transform="translate(17.248 1)" fill="#fff"/>
          </g>
          <g id="g4447" transform="translate(10.915 10.27)">
            <path id="path4449" d="M-28.147-94.31A3.094,3.094,0,0,1-31.237-97.4v-3.032a3.094,3.094,0,0,1,3.091-3.091,3.094,3.094,0,0,1,3.091,3.091V-97.4A3.094,3.094,0,0,1-28.147-94.31Zm0-7.394a1.272,1.272,0,0,0-1.271,1.271V-97.4a1.272,1.272,0,0,0,1.271,1.271A1.272,1.272,0,0,0-26.876-97.4v-3.032A1.272,1.272,0,0,0-28.147-101.7Z" transform="translate(31.237 103.524)" fill="#fff"/>
          </g>
          <g id="g4451" transform="translate(17.986 10.27)">
            <path id="path4453" d="M2.019-39.279a.91.91,0,0,1-.91-.91.91.91,0,0,1,.91-.91.8.8,0,0,0,.8-.8.8.8,0,0,0-.8-.8H.82v2.229a.91.91,0,0,1-.91.91.91.91,0,0,1-.91-.91v-3.139a.91.91,0,0,1,.91-.91H2.019A2.627,2.627,0,0,1,4.643-41.9,2.627,2.627,0,0,1,2.019-39.279Z" transform="translate(1 44.527)" fill="#fff"/>
          </g>
          <g id="g4455" transform="translate(17.986 13.697)">
            <path id="path4457" d="M-34.156-50.211H-36.8a.91.91,0,0,1-.91-.91v-3.966A.91.91,0,0,1-36.8-56h2.648a2.627,2.627,0,0,1,2.624,2.624v.539A2.627,2.627,0,0,1-34.156-50.211Zm-1.738-1.82h1.738a.8.8,0,0,0,.8-.8v-.539a.8.8,0,0,0-.8-.8h-1.738Z" transform="translate(37.713 55.997)" fill="#fff"/>
          </g>
          <g id="g4459" transform="translate(39.548 10.27)">
            <path id="path4461" d="M-30.224-6.4a2.225,2.225,0,0,1,1.583.656,2.242,2.242,0,0,1,0,3.167,2.225,2.225,0,0,1-1.583.656,2.225,2.225,0,0,1-1.583-.656,2.242,2.242,0,0,1,0-3.167A2.225,2.225,0,0,1-30.224-6.4Zm0,2.658a.417.417,0,0,0,.3-.123.42.42,0,0,0,0-.593.417.417,0,0,0-.3-.123.418.418,0,0,0-.3.123.42.42,0,0,0,0,.593A.417.417,0,0,0-30.224-3.74Z" transform="translate(32.462 6.398)" fill="#fff"/>
          </g>
          <g id="g4463" transform="translate(42.045 12.768)">
            <path id="path4465" d="M.948,1.858A.907.907,0,0,1,.3,1.591L-.733.554a.91.91,0,0,1,0-1.287.91.91,0,0,1,1.287,0L1.591.3A.91.91,0,0,1,.948,1.858Z" transform="translate(1 1)" fill="#fff"/>
          </g>
          <g id="g4467" transform="translate(27.004 16.242)">
            <path id="path4469" d="M-212.231.82h-16.488a.91.91,0,0,1-.91-.91.91.91,0,0,1,.91-.91h16.488a.91.91,0,0,1,.91.91A.91.91,0,0,1-212.231.82Z" transform="translate(229.629 1)" fill="#fff"/>
          </g>
          <g id="g4471" transform="translate(5.054 25.324)">
            <path id="path4473" d="M7.026.82H-.09A.91.91,0,0,1-1-.09.91.91,0,0,1-.09-1H7.026a.91.91,0,0,1,.91.91A.91.91,0,0,1,7.026.82Z" transform="translate(1 1)" fill="#fff"/>
          </g>
          <g id="g4475" transform="translate(5.054 28.131)">
            <path id="path4477" d="M12.554.82H-.09A.91.91,0,0,1-1-.09.91.91,0,0,1-.09-1H12.554a.91.91,0,0,1,.91.91A.91.91,0,0,1,12.554.82Z" transform="translate(1 1)" fill="#fff"/>
          </g>
          <g id="g4479" transform="translate(5.054 30.937)">
            <path id="path4481" d="M12.059.82H-.09A.91.91,0,0,1-1-.09.91.91,0,0,1-.09-1H12.059a.91.91,0,0,1,.91.91A.91.91,0,0,1,12.059.82Z" transform="translate(1 1)" fill="#fff"/>
          </g>
          <g id="g4483" transform="translate(43.487 19.418)">
            <path id="path4485" d="M-.08.82H-.09A.91.91,0,0,1-1-.09.91.91,0,0,1-.09-1h.01a.91.91,0,0,1,.91.91A.91.91,0,0,1-.08.82Z" transform="translate(1 1)" fill="#fff"/>
          </g>
          <g id="g4487" transform="translate(21.612 29.177)">
            <path id="path4489" d="M5.382.82H-.09A.91.91,0,0,1-1-.09.91.91,0,0,1-.09-1H5.382a.91.91,0,0,1,.91.91A.91.91,0,0,1,5.382.82Z" transform="translate(1 1)" fill="#fff"/>
          </g>
          <g id="g4491" transform="translate(21.296 32.604)">
            <path id="path4493" d="M5.894.82H-.09A.91.91,0,0,1-1-.09.91.91,0,0,1-.09-1H5.894a.91.91,0,0,1,.91.91A.91.91,0,0,1,5.894.82Z" transform="translate(1 1)" fill="#fff"/>
          </g>
        </g>
      </g>
    </g>
  </g>
</svg>
