<svg xmlns="http://www.w3.org/2000/svg" xmlns:xlink="http://www.w3.org/1999/xlink" width="93" height="93" viewBox="0 0 93 93">
  <defs>
    <clipPath id="clip-path">
      <path id="path5868" d="M0-682.665H50.185v50.185H0Z" transform="translate(0 682.665)" fill="#fff"/>
    </clipPath>
  </defs>
  <g id="Сгруппировать_7147" data-name="Сгруппировать 7147" transform="translate(-130 -1469)">
    <circle id="Ellipse_6" data-name="Ellipse 6" cx="46.5" cy="46.5" r="46.5" transform="translate(130 1469)" fill="#ff8100"/>
    <g id="g5864" transform="translate(151.08 1490.08)">
      <g id="g5866" transform="translate(0)" clip-path="url(#clip-path)">
        <g id="g5872" transform="translate(15.342 43.385)">
          <path id="path5874" d="M-.072,5.993A.928.928,0,0,1-1,5.065V-.072A.928.928,0,0,1-.072-1a.928.928,0,0,1,.928.928V5.065A.928.928,0,0,1-.072,5.993Z" transform="translate(1 1)" fill="#fff"/>
        </g>
        <g id="g5876" transform="translate(32.985 43.385)">
          <path id="path5878" d="M-.072,5.993A.928.928,0,0,1-1,5.065V-.072A.928.928,0,0,1-.072-1a.928.928,0,0,1,.928.928V5.065A.928.928,0,0,1-.072,5.993Z" transform="translate(1 1)" fill="#fff"/>
        </g>
        <g id="g5880" transform="translate(16.656 34.161)">
          <path id="path5882" d="M-44.193-80.554a.928.928,0,0,1-.128-.009.928.928,0,0,1-.63-.384l-3.5-4.957a.928.928,0,0,1,.122-1.211l1.264-1.189a1.8,1.8,0,0,1,1.25-.566,1.907,1.907,0,0,1,.99.3l5.114,3.05a.928.928,0,0,1,.45.731A.928.928,0,0,1-39.6-84L-43.61-80.76A.928.928,0,0,1-44.193-80.554Zm-2.278-5.761,2.465,3.49,2.2-1.778-3.969-2.367-.023.021Z" transform="translate(48.621 88.869)" fill="#fff"/>
        </g>
        <g id="g5884" transform="translate(21.449 39.575)">
          <path id="path5886" d="M3.92,3.156H1.484A1.427,1.427,0,0,1,.175,2.379l0-.006L-.892.361A.928.928,0,0,1-.506-.892.928.928,0,0,1,.748-.506L1.7,1.3H3.571L4.538-.51A.928.928,0,0,1,5.794-.891.928.928,0,0,1,6.175.365L5.183,2.221l-.036.069A1.377,1.377,0,0,1,3.92,3.156Z" transform="translate(1 1)" fill="#fff"/>
        </g>
        <g id="g5888" transform="translate(20.849 41.876)">
          <path id="path5890" d="M-29.4,7.5a.927.927,0,0,1-.286-.046.928.928,0,0,1-.6-1.169l2.156-6.646a.928.928,0,0,1,1.169-.6.928.928,0,0,1,.6,1.169L-28.518,6.86A.928.928,0,0,1-29.4,7.5Z" transform="translate(30.328 1)" fill="#fff"/>
        </g>
        <g id="g5892" transform="translate(25.322 41.876)">
          <path id="path5894" d="M2.086,7.5A.928.928,0,0,1,1.2,6.86L-.955.214a.928.928,0,0,1,.6-1.169.928.928,0,0,1,1.169.6L2.969,6.287A.928.928,0,0,1,2.086,7.5Z" transform="translate(1 1)" fill="#fff"/>
        </g>
        <g id="g5896" transform="translate(24.163 34.161)">
          <path id="path5898" d="M-50.566-80.554a.928.928,0,0,1-.583-.206L-55.155-84a.928.928,0,0,1-.342-.787.928.928,0,0,1,.45-.731l5.115-3.051a1.916,1.916,0,0,1,.99-.3,1.8,1.8,0,0,1,1.246.563l1.269,1.191A.928.928,0,0,1-46.3-85.9l-3.5,4.957a.928.928,0,0,1-.63.383A.928.928,0,0,1-50.566-80.554Zm-2.388-4.05,2.2,1.779,2.467-3.49-.678-.637-.021-.019Z" transform="translate(55.5 88.869)" fill="#fff"/>
        </g>
        <g id="g5900" transform="translate(9.78 35.663)">
          <path id="path5902" d="M-269.569,13.714h-27.878a1.375,1.375,0,0,1-1.372-1.375V7.1A8.927,8.927,0,0,1-297.85,2.9a5.878,5.878,0,0,1,3.5-2.909l3.065-.945a.928.928,0,0,1,1.16.613.928.928,0,0,1-.613,1.16l-3.065.945c-2.85.879-3.158,4.031-3.158,5.346v4.754h26.912V7.1c0-1.315-.308-4.467-3.157-5.345l-3.062-.945a.928.928,0,0,1-.613-1.16.928.928,0,0,1,1.16-.613l3.062.945c2.8.862,4.466,3.523,4.466,7.118v5.235A1.375,1.375,0,0,1-269.569,13.714Z" transform="translate(298.819 1)" fill="#fff"/>
        </g>
        <g id="g5904" transform="translate(15.681 15.606)">
          <path id="path5906" d="M-123.364-1h2.242a1.6,1.6,0,0,1,1.6,1.6V.691a8.148,8.148,0,0,1,.805.334l.064-.064A1.591,1.591,0,0,1-117.52.493a1.59,1.59,0,0,1,1.132.468l1.592,1.592a1.586,1.586,0,0,1,.47,1.132,1.586,1.586,0,0,1-.471,1.134l-.062.062a8.047,8.047,0,0,1,.334.806h.09a1.6,1.6,0,0,1,1.6,1.6V9.541a1.6,1.6,0,0,1-1.6,1.6h-.091a8.088,8.088,0,0,1-.334.806l.062.062a1.585,1.585,0,0,1,.471,1.129,1.592,1.592,0,0,1-.47,1.138l-1.592,1.592a1.59,1.59,0,0,1-1.132.468,1.591,1.591,0,0,1-1.132-.467l-.064-.064a8.146,8.146,0,0,1-.805.334v.088a1.6,1.6,0,0,1-1.6,1.6h-2.242a1.6,1.6,0,0,1-1.6-1.6V16.14a8.168,8.168,0,0,1-.805-.334l-.064.064a1.589,1.589,0,0,1-1.132.468,1.6,1.6,0,0,1-1.13-.464l0,0-1.592-1.592,0,0a1.607,1.607,0,0,1,0-2.261l.064-.064a8.186,8.186,0,0,1-.334-.805h-.088a1.6,1.6,0,0,1-1.6-1.6V7.291a1.6,1.6,0,0,1,1.6-1.6h.088a8.15,8.15,0,0,1,.334-.805l-.064-.064a1.6,1.6,0,0,1,0-2.265L-128.1.961l0,0a1.6,1.6,0,0,1,1.13-.464,1.589,1.589,0,0,1,1.131.467l.064.065a8.175,8.175,0,0,1,.805-.334V.6A1.6,1.6,0,0,1-123.364-1Zm1.987,1.855h-1.734v.523a.928.928,0,0,1-.7.9,6.322,6.322,0,0,0-1.66.688.928.928,0,0,1-1.129-.142l-.371-.371L-128.2,3.686l.371.371a.928.928,0,0,1,.142,1.129,6.3,6.3,0,0,0-.688,1.659.928.928,0,0,1-.9.7h-.523V9.289h.523a.928.928,0,0,1,.9.7,6.325,6.325,0,0,0,.688,1.66.928.928,0,0,1-.142,1.129l-.371.371,1.233,1.233.371-.371a.928.928,0,0,1,1.129-.142,6.32,6.32,0,0,0,1.66.688.928.928,0,0,1,.7.9v.523h1.734v-.523a.928.928,0,0,1,.7-.9,6.293,6.293,0,0,0,1.659-.688.928.928,0,0,1,1.129.142l.371.371,1.233-1.233-.371-.371a.928.928,0,0,1-.141-1.132,6.235,6.235,0,0,0,.687-1.657.928.928,0,0,1,.9-.7h.523V7.543h-.523a.928.928,0,0,1-.9-.7,6.208,6.208,0,0,0-.686-1.656.928.928,0,0,1,.14-1.132l.371-.371-1.233-1.233-.371.371a.928.928,0,0,1-1.129.142,6.3,6.3,0,0,0-1.659-.688.928.928,0,0,1-.7-.9Z" transform="translate(131.654 1)" fill="#fff"/>
        </g>
        <g id="g5908" transform="translate(20.046 19.962)">
          <path id="path5910" d="M-52.036-103.11a5.058,5.058,0,0,1-5.051-5.054,5.057,5.057,0,0,1,5.051-5.051,5.058,5.058,0,0,1,5.054,5.051A5.059,5.059,0,0,1-52.036-103.11Zm0-8.249a3.2,3.2,0,0,0-3.2,3.2,3.2,3.2,0,0,0,3.2,3.2,3.2,3.2,0,0,0,3.2-3.2A3.2,3.2,0,0,0-52.036-111.359Z" transform="translate(57.087 113.214)" fill="#fff"/>
        </g>
        <g id="g5912" transform="translate(-0.192 11.88)">
          <path id="path5914" d="M-331.808.855h-22.66a.928.928,0,0,1-.928-.928A.928.928,0,0,1-354.469-1h22.66a.928.928,0,0,1,.928.928A.928.928,0,0,1-331.808.855Z" transform="translate(355.396 1)" fill="#fff"/>
        </g>
        <g id="g5916" transform="translate(33.354 3.933)">
          <path id="path5918" d="M-24.163-47.293A2.842,2.842,0,0,1-27-50.133a2.841,2.841,0,0,1,2.839-2.836,2.84,2.84,0,0,1,2.836,2.836A2.841,2.841,0,0,1-24.163-47.293Zm0-3.82a.984.984,0,0,0-.984.981.985.985,0,0,0,.984.984.984.984,0,0,0,.981-.984A.982.982,0,0,0-24.163-51.114Z" transform="translate(27.003 52.969)" fill="#fff"/>
        </g>
        <g id="g5920" transform="translate(25.9 3.933)">
          <path id="path5922" d="M-24.163-47.293A2.842,2.842,0,0,1-27-50.133a2.841,2.841,0,0,1,2.839-2.836,2.84,2.84,0,0,1,2.836,2.836A2.841,2.841,0,0,1-24.163-47.293Zm0-3.82a.984.984,0,0,0-.984.981.985.985,0,0,0,.984.984.984.984,0,0,0,.981-.984A.982.982,0,0,0-24.163-51.114Z" transform="translate(27.003 52.969)" fill="#fff"/>
        </g>
        <g id="g5924" transform="translate(3.698 3.933)">
          <path id="path5926" d="M-24.163-1h12.736A2.841,2.841,0,0,1-8.588,1.836a2.842,2.842,0,0,1-2.839,2.839H-24.163A2.842,2.842,0,0,1-27,1.836,2.841,2.841,0,0,1-24.163-1Zm12.736,3.82a.985.985,0,0,0,.984-.984.984.984,0,0,0-.984-.981H-24.163a.984.984,0,0,0-.984.981.985.985,0,0,0,.984.984Z" transform="translate(27.003 1)" fill="#fff"/>
        </g>
        <g id="g5928" transform="translate(-0.192 -0.193)">
          <path id="path5930" d="M46.654-318.895H38.341a.928.928,0,0,1-.928-.928.928.928,0,0,1,.928-.928h8.313a1.059,1.059,0,0,0,1.059-1.056v-36.623a1.059,1.059,0,0,0-1.059-1.056H1.911a1.057,1.057,0,0,0-1.056,1.056v21.114a.928.928,0,0,1-.928.928A.928.928,0,0,1-1-337.315v-21.114a2.915,2.915,0,0,1,2.911-2.911H46.654a2.916,2.916,0,0,1,2.914,2.911v36.623A2.916,2.916,0,0,1,46.654-318.895Zm-36.43,0H1.911A2.915,2.915,0,0,1-1-321.806a.928.928,0,0,1,.337-.715.927.927,0,0,1,.766-.2l10.3,1.984a.928.928,0,0,1,.748,1A.928.928,0,0,1,10.224-318.895Z" transform="translate(1 361.34)" fill="#fff"/>
        </g>
        <g id="g5932" transform="translate(40.809 3.933)">
          <path id="path5934" d="M-24.163-47.293A2.842,2.842,0,0,1-27-50.133a2.841,2.841,0,0,1,2.839-2.836,2.84,2.84,0,0,1,2.836,2.836A2.841,2.841,0,0,1-24.163-47.293Zm0-3.82a.984.984,0,0,0-.984.981.985.985,0,0,0,.984.984.984.984,0,0,0,.981-.984A.982.982,0,0,0-24.163-51.114Z" transform="translate(27.003 52.969)" fill="#fff"/>
        </g>
      </g>
    </g>
  </g>
</svg>
