<svg xmlns="http://www.w3.org/2000/svg" width="92" height="92" viewBox="0 0 92 92">
  <g id="Сгруппировать_7148" data-name="Сгруппировать 7148" transform="translate(-131 -1610)">
    <g id="Group_19" data-name="Group 19" transform="translate(-8.5 -360)">
      <circle id="Ellipse_7" data-name="Ellipse 7" cx="46" cy="46" r="46" transform="translate(139.5 1970)" fill="#ffb201"/>
    </g>
    <g id="Сгруппировать_7076" data-name="Сгруппировать 7076" transform="translate(154.067 1630.456)">
      <g id="g4447" transform="translate(20.256)">
        <path id="path4449" d="M-275.031-7.476q-.136,0-.274-.007a5.062,5.062,0,0,1-3.529-1.7,5.415,5.415,0,0,1-1.362-3.9,13.168,13.168,0,0,1,.519-2.715c.222-.821.451-1.671.227-1.963-.125-.164-.656-.544-2.868-.544h-3.04a1.439,1.439,0,0,1-1.437-1.437v-3.04c0-2.317.365-3.585,1.222-4.242.97-.743,2.182-.416,3.465-.07a11.621,11.621,0,0,0,2.365.462,3.674,3.674,0,0,0,2.649-.923,3.344,3.344,0,0,0,1.126-2.329,3.419,3.419,0,0,0-.942-2.554,3.414,3.414,0,0,0-2.5-1.072,10.464,10.464,0,0,0-2.7.472c-1.283.346-2.5.673-3.465-.07-.857-.656-1.222-1.925-1.222-4.242v-1.829a2.651,2.651,0,0,1,2.648-2.647h18.227a2.65,2.65,0,0,1,2.647,2.647v1.331a.865.865,0,0,1-.865.865.865.865,0,0,1-.865-.865v-1.331a.918.918,0,0,0-.917-.917h-18.227a.918.918,0,0,0-.917.917v1.829c0,2.213.38,2.743.544,2.868.292.224,1.141-.005,1.963-.227a11.835,11.835,0,0,1,3.151-.531,5.128,5.128,0,0,1,3.751,1.611A5.133,5.133,0,0,1-274.24-29.8a5.062,5.062,0,0,1-1.7,3.529,5.415,5.415,0,0,1-3.9,1.362,13.165,13.165,0,0,1-2.715-.519c-.821-.221-1.671-.451-1.963-.227-.164.125-.544.656-.544,2.868v2.747h2.747c2.317,0,3.585.365,4.242,1.222.743.97.416,2.182.07,3.465a11.616,11.616,0,0,0-.462,2.365,3.674,3.674,0,0,0,.923,2.649,3.344,3.344,0,0,0,2.329,1.126,3.419,3.419,0,0,0,2.554-.942,3.414,3.414,0,0,0,1.072-2.5,10.46,10.46,0,0,0-.472-2.7c-.346-1.283-.673-2.5.07-3.465.656-.857,1.925-1.222,4.242-1.222H-265V-34.281a.865.865,0,0,1,.865-.865.865.865,0,0,1,.865.865v14.536a1.439,1.439,0,0,1-1.437,1.437h-3.04c-2.212,0-2.743.38-2.868.544-.224.292.005,1.141.227,1.963a11.833,11.833,0,0,1,.531,3.151A5.128,5.128,0,0,1-271.471-8.9,5.127,5.127,0,0,1-275.031-7.476Z" transform="translate(286.795 41.829)" fill="#fff"/>
      </g>
      <g id="g4451" transform="translate(10.96 28.736)">
        <path id="path4453" d="M-178.2,21.611H-198.21a.865.865,0,0,1-.865-.865V17.134c0-2.213-.38-2.743-.544-2.868-.292-.224-1.141.005-1.963.227a11.834,11.834,0,0,1-3.151.531,5.134,5.134,0,0,1-3.71-1.567A5.136,5.136,0,0,1-209.9,9.7a5.084,5.084,0,0,1,1.636-3.593,5.342,5.342,0,0,1,3.835-1.427,12.706,12.706,0,0,1,2.852.525c.821.221,1.671.45,1.963.227.164-.125.544-.656.544-2.868V-1.046a.865.865,0,0,1,.865-.865h3.612a14.672,14.672,0,0,1,1.579.074.865.865,0,0,1,.767.953.865.865,0,0,1-.953.767A13.167,13.167,0,0,0-194.6-.18h-2.747V2.566c0,2.317-.365,3.585-1.222,4.242-.97.743-2.182.416-3.465.07a11.335,11.335,0,0,0-2.471-.467,3.6,3.6,0,0,0-2.585.963,3.366,3.366,0,0,0-1.087,2.377,3.42,3.42,0,0,0,.973,2.5,3.417,3.417,0,0,0,2.469,1.043,10.463,10.463,0,0,0,2.7-.472c1.283-.346,2.5-.673,3.465.07.857.656,1.222,1.925,1.222,4.242v2.747H-178.2a.918.918,0,0,0,.917-.917V.737A.918.918,0,0,0-178.2-.18h-1.829c-2.213,0-2.743.38-2.868.544-.224.292.005,1.141.227,1.963a11.834,11.834,0,0,1,.531,3.151,5.134,5.134,0,0,1-1.567,3.71,5.137,5.137,0,0,1-3.755,1.462,5.084,5.084,0,0,1-3.592-1.636,5.342,5.342,0,0,1-1.427-3.835,12.71,12.71,0,0,1,.526-2.853q.043-.161.085-.317a.865.865,0,0,1,1.057-.615.865.865,0,0,1,.615,1.057q-.042.16-.087.325a11.335,11.335,0,0,0-.467,2.472,3.6,3.6,0,0,0,.963,2.585,3.366,3.366,0,0,0,2.377,1.087,3.42,3.42,0,0,0,2.5-.973,3.417,3.417,0,0,0,1.043-2.469,10.463,10.463,0,0,0-.472-2.7c-.346-1.283-.673-2.5.07-3.465.656-.857,1.925-1.222,4.242-1.222h1.829A2.65,2.65,0,0,1-175.553.737V18.963A2.65,2.65,0,0,1-178.2,21.611Z" transform="translate(209.906 1.911)" fill="#fff"/>
      </g>
      <g id="g4455" transform="translate(6.872 50.527)">
        <path id="path4457" d="M14.785.73H-.135A.865.865,0,0,1-1-.135.865.865,0,0,1-.135-1h14.92a.865.865,0,0,1,.865.865A.865.865,0,0,1,14.785.73Z" transform="translate(1 1)" fill="#fff"/>
      </g>
      <g id="g4459" transform="translate(0 17.904)">
        <path id="path4461" d="M-282.714-108.7h-1.434a2.651,2.651,0,0,1-2.647-2.648v-18.227a2.65,2.65,0,0,1,2.647-2.647h1.829c2.212,0,2.743-.38,2.868-.544.224-.292-.005-1.141-.227-1.963a11.835,11.835,0,0,1-.531-3.151,5.134,5.134,0,0,1,1.567-3.71,5.135,5.135,0,0,1,3.755-1.462,5.084,5.084,0,0,1,3.592,1.636,5.342,5.342,0,0,1,1.427,3.835,12.706,12.706,0,0,1-.525,2.852c-.221.821-.45,1.671-.227,1.963.125.164.656.544,2.868.544h3.612a.865.865,0,0,1,.865.865.865.865,0,0,1-.865.865h-3.612c-2.317,0-3.585-.365-4.242-1.222-.743-.97-.416-2.182-.07-3.465a11.335,11.335,0,0,0,.467-2.471,3.6,3.6,0,0,0-.963-2.585,3.366,3.366,0,0,0-2.376-1.087,3.42,3.42,0,0,0-2.5.973,3.417,3.417,0,0,0-1.043,2.469,10.462,10.462,0,0,0,.472,2.7c.346,1.283.673,2.5-.07,3.465-.656.857-1.925,1.222-4.242,1.222h-1.829a.918.918,0,0,0-.917.917v18.227a.918.918,0,0,0,.917.917h1.434a.865.865,0,0,1,.865.865A.865.865,0,0,1-282.714-108.7Z" transform="translate(286.795 143.057)" fill="#fff"/>
      </g>
      <g id="g4463" transform="translate(4.81 1.477)">
        <path id="path4465" d="M-128.543-55.683a2.784,2.784,0,0,1,2.781,2.781v1.388h1.388a2.784,2.784,0,0,1,2.781,2.781,2.784,2.784,0,0,1-2.781,2.781h-1.388v1.388a2.784,2.784,0,0,1-2.781,2.781,2.784,2.784,0,0,1-2.781-2.781v-1.388h-1.388a2.784,2.784,0,0,1-2.781-2.781,2.784,2.784,0,0,1,2.781-2.781h1.388V-52.9A2.784,2.784,0,0,1-128.543-55.683Zm4.169,8a1.052,1.052,0,0,0,1.051-1.051,1.052,1.052,0,0,0-1.051-1.051h-2.253a.865.865,0,0,1-.865-.865V-52.9a1.052,1.052,0,0,0-1.051-1.051,1.052,1.052,0,0,0-1.051,1.051v2.253a.865.865,0,0,1-.865.865h-2.253a1.052,1.052,0,0,0-1.051,1.051,1.052,1.052,0,0,0,1.051,1.051h2.253a.865.865,0,0,1,.865.865v2.253a1.052,1.052,0,0,0,1.051,1.051,1.052,1.052,0,0,0,1.051-1.051v-2.253a.865.865,0,0,1,.865-.865Z" transform="translate(135.493 55.683)" fill="#fff"/>
      </g>
      <g id="g4467" transform="translate(27.592 43.686)">
        <path id="path4469" d="M-.135,1.62A.865.865,0,0,1-1,.755v-.89A.865.865,0,0,1-.135-1,.865.865,0,0,1,.73-.135v.89A.865.865,0,0,1-.135,1.62Z" transform="translate(1 1)" fill="#fff"/>
      </g>
      <g id="g4471" transform="translate(37.782 43.686)">
        <path id="path4473" d="M-.135,1.62A.865.865,0,0,1-1,.755v-.89A.865.865,0,0,1-.135-1,.865.865,0,0,1,.73-.135v.89A.865.865,0,0,1-.135,1.62Z" transform="translate(1 1)" fill="#fff"/>
      </g>
      <g id="g4475" transform="translate(31.344 44.615)">
        <path id="path4477" d="M1.208,1.374A2.608,2.608,0,0,1-.8.417.865.865,0,0,1-.687-.8.865.865,0,0,1,.531-.687a.872.872,0,0,0,.677.33.872.872,0,0,0,.677-.331A.865.865,0,0,1,3.1-.8.865.865,0,0,1,3.218.417,2.608,2.608,0,0,1,1.208,1.374Z" transform="translate(1 1)" fill="#fff"/>
      </g>
    </g>
  </g>
</svg>
