<svg xmlns="http://www.w3.org/2000/svg" xmlns:xlink="http://www.w3.org/1999/xlink" width="96" height="96" viewBox="0 0 96 96">
  <defs>
    <clipPath id="clip-path">
      <rect id="Прямоугольник_3" data-name="Прямоугольник 3" width="69.346" height="69.346" rx="5" fill="none" stroke="rgba(0,0,0,0)" stroke-width="1"/>
    </clipPath>
  </defs>
  <g id="Сгруппировать_7150" data-name="Сгруппировать 7150" transform="translate(-129 -1898.223)">
    <g id="Group_19" data-name="Group 19" transform="translate(-10.5 -71.777)">
      <circle id="Ellipse_7" data-name="Ellipse 7" cx="48" cy="48" r="48" transform="translate(139.5 1970)" fill="#79d8c8"/>
    </g>
    <g id="g3917" transform="translate(142.327 1909.297)">
      <g id="Сгруппировать_7065" data-name="Сгруппировать 7065" transform="translate(0 0)">
        <g id="Сгруппировать_7064" data-name="Сгруппировать 7064" clip-path="url(#clip-path)">
          <g id="g3919" transform="translate(8.316 0.722)">
            <g id="g3925" transform="translate(10.986 27.903)">
              <path id="path3927" d="M163.472,389.152a15.373,15.373,0,0,1-5.984-29.533.984.984,0,1,1,.766,1.812,13.4,13.4,0,1,0,10.215-.09.984.984,0,0,1,.734-1.825,15.373,15.373,0,0,1-5.732,29.637Z" transform="translate(-148.101 -359.444)" fill="#fff"/>
            </g>
            <g id="g3929" transform="translate(25.373 35.875)">
              <path id="path3931" d="M290.717,451.008a.984.984,0,0,1-.984-.984V438.906a.984.984,0,1,1,1.967,0v11.119A.984.984,0,0,1,290.717,451.008Z" transform="translate(-289.733 -437.922)" fill="#fff"/>
            </g>
            <g id="g3933" transform="translate(16.096 36.581)">
              <path id="path3935" d="M208.671,460.785a10.26,10.26,0,0,1-8.865-15.427.984.984,0,0,1,1.7.993,8.293,8.293,0,1,0,14.332,0,.984.984,0,0,1,1.7-.993,10.26,10.26,0,0,1-8.864,15.427Z" transform="translate(-198.41 -444.87)" fill="#fff"/>
            </g>
            <g id="g3937" transform="translate(0 20.686)">
              <path id="path3939" d="M70.023,336.3H62.6a.984.984,0,0,1-.971-.823l-1.077-6.507a19.781,19.781,0,0,1-3.625-1.5l-5.364,3.841a.984.984,0,0,1-1.268-.1l-5.246-5.246a.984.984,0,0,1-.1-1.268l3.841-5.364a19.769,19.769,0,0,1-1.5-3.625l-6.507-1.077a.984.984,0,0,1-.823-.97v-7.42a.984.984,0,0,1,.823-.971l6.507-1.077a19.768,19.768,0,0,1,1.5-3.625L44.948,295.2a.984.984,0,0,1,.1-1.268l5.246-5.246a.984.984,0,0,1,1.268-.1l5.364,3.841c.309-.165.627-.325.949-.475a.984.984,0,1,1,.835,1.782c-.468.219-.924.457-1.357.708a.984.984,0,0,1-1.066-.051L51.1,290.667l-4.067,4.067,3.718,5.193a.984.984,0,0,1,.052,1.065,17.8,17.8,0,0,0-1.791,4.321.984.984,0,0,1-.79.717l-6.3,1.042v5.751l6.3,1.042a.984.984,0,0,1,.79.717A17.8,17.8,0,0,0,50.8,318.9a.984.984,0,0,1-.052,1.065l-3.718,5.192,4.067,4.067,5.193-3.718a.984.984,0,0,1,1.065-.052,17.81,17.81,0,0,0,4.321,1.791.984.984,0,0,1,.717.79l1.042,6.3h5.751l1.042-6.3a.984.984,0,0,1,.716-.79,17.813,17.813,0,0,0,4.321-1.791.984.984,0,0,1,1.065.052l5.192,3.718,4.067-4.067-3.718-5.192a.984.984,0,0,1-.052-1.065,17.8,17.8,0,0,0,1.791-4.32.984.984,0,0,1,.79-.717l6.3-1.042v-5.751l-6.3-1.042a.984.984,0,0,1-.79-.717,17.8,17.8,0,0,0-1.791-4.321.984.984,0,0,1,.052-1.065l3.718-5.193-4.067-4.067-5.192,3.718a.984.984,0,0,1-1.066.052c-.434-.251-.89-.489-1.357-.708a.984.984,0,1,1,.834-1.782c.321.15.639.31.949.475l5.364-3.841a.984.984,0,0,1,1.268.1l5.247,5.246a.984.984,0,0,1,.1,1.268l-3.841,5.364a19.776,19.776,0,0,1,1.5,3.625l6.507,1.077a.984.984,0,0,1,.823.971v7.42a.984.984,0,0,1-.823.97L85.339,315.7a19.77,19.77,0,0,1-1.5,3.625l3.841,5.364a.984.984,0,0,1-.1,1.268l-5.247,5.246a.984.984,0,0,1-1.268.1l-5.364-3.841a19.784,19.784,0,0,1-3.625,1.5l-1.077,6.508A.984.984,0,0,1,70.023,336.3Z" transform="translate(-39.956 -288.398)" fill="#fff"/>
            </g>
            <g id="g3941" transform="translate(12.143)">
              <path id="path3943" d="M179.02,131.839a.984.984,0,0,1-.984-.984v-27.3a.984.984,0,0,1,.984-.984h5.968L173.713,87.39l-11.274,15.183h5.968a.984.984,0,0,1,.984.984v27.3a.984.984,0,0,1-1.967,0V104.54h-6.94a.984.984,0,0,1-.79-1.57l13.23-17.817a.984.984,0,0,1,1.58,0l13.23,17.817a.984.984,0,0,1-.79,1.57H180v26.315A.984.984,0,0,1,179.02,131.839Z" transform="translate(-159.5 -84.756)" fill="#fff"/>
            </g>
          </g>
        </g>
      </g>
    </g>
  </g>
</svg>
