<svg xmlns="http://www.w3.org/2000/svg" xmlns:xlink="http://www.w3.org/1999/xlink" width="95" height="95" viewBox="0 0 95 95">
  <defs>
    <clipPath id="clip-path">
      <path id="path2352" d="M0-682.665H44.5v44.5H0Z" transform="translate(0 682.665)" fill="#fff"/>
    </clipPath>
  </defs>
  <g id="Сгруппировать_7145" data-name="Сгруппировать 7145" transform="translate(-130 -1165)">
    <circle id="Ellipse_4" data-name="Ellipse 4" cx="47.5" cy="47.5" r="47.5" transform="translate(130 1165)" fill="#4fd7e5"/>
    <g id="g2346" transform="translate(154.067 1190.333)">
      <g id="g2348" transform="translate(0)">
        <g id="g2350" clip-path="url(#clip-path)">
          <path id="path2356" d="M546.419-630.457H541.2a.873.873,0,0,1-.872-.873v-31.463a.872.872,0,0,1,.872-.873h5.215a.873.873,0,0,1,.873.873v31.463A.873.873,0,0,1,546.419-630.457Zm-4.342-1.745h3.469V-661.92h-3.469Z" transform="translate(-505.917 664.096)" fill="#fff"/>
        </g>
      </g>
      <path id="path2358" d="M386.42-553.179h-5.215a.873.873,0,0,1-.873-.873v-26.074a.873.873,0,0,1,.873-.873h5.215a.873.873,0,0,1,.873.873v26.074A.873.873,0,0,1,386.42-553.179Zm-4.342-1.745h3.47v-24.329h-3.47Z" transform="translate(-356.348 586.818)" fill="#fff"/>
      <path id="path2360" d="M226.42-478.394h-5.215a.873.873,0,0,1-.873-.873v-20.859a.873.873,0,0,1,.873-.873h5.215a.873.873,0,0,1,.873.873v20.859A.873.873,0,0,1,226.42-478.394Zm-4.342-1.745h3.47v-19.114h-3.47Z" transform="translate(-206.778 512.033)" fill="#fff"/>
      <g id="g2362" transform="translate(0)">
        <g id="g2364" clip-path="url(#clip-path)">
          <path id="path2370" d="M66.421-403.609H61.206a.873.873,0,0,1-.873-.873v-15.645a.873.873,0,0,1,.873-.873h5.215a.873.873,0,0,1,.873.873v15.645A.873.873,0,0,1,66.421-403.609Zm-4.342-1.745h3.47v-13.9h-3.47Z" transform="translate(-57.208 437.248)" fill="#fff"/>
          <g id="g2372" transform="translate(0.431 39.716)">
            <path id="path2374" d="M23.427.745H-.127A.873.873,0,0,1-1-.127.873.873,0,0,1-.127-1H23.427a.873.873,0,0,1,.873.873A.873.873,0,0,1,23.427.745Z" transform="translate(1 1)" fill="#fff"/>
          </g>
          <g id="g2376" transform="translate(29.2 39.716)">
            <path id="path2378" d="M13,.745H-.127A.873.873,0,0,1-1-.127.873.873,0,0,1-.127-1H13a.873.873,0,0,1,.873.873A.873.873,0,0,1,13,.745Z" transform="translate(1 1)" fill="#fff"/>
          </g>
          <g id="g2380" transform="translate(23.985 37.109)">
            <path id="path2382" d="M-77.52-34.04A3.484,3.484,0,0,1-81-37.52,3.484,3.484,0,0,1-77.52-41a3.484,3.484,0,0,1,3.48,3.48A3.484,3.484,0,0,1-77.52-34.04Zm0-5.215a1.737,1.737,0,0,0-1.735,1.735,1.737,1.737,0,0,0,1.735,1.735,1.737,1.737,0,0,0,1.735-1.735A1.737,1.737,0,0,0-77.52-39.255Z" transform="translate(81 41)" fill="#fff"/>
          </g>
        </g>
      </g>
    </g>
  </g>
</svg>
